<svg width="80" height="80" viewBox="0 0 80 80" fill="none" xmlns="http://www.w3.org/2000/svg">
<g clip-path="url(#clip0_2_101)">
<path d="M46.709 79.958C46.5633 79.9788 46.4166 79.9915 46.2695 79.9922C46.4166 79.9914 46.5633 79.9788 46.709 79.958ZM45.5605 79.915C45.7837 79.9639 46.0111 79.9902 46.2393 79.9912C46.0111 79.9902 45.7837 79.9639 45.5605 79.915ZM34.293 79.9434C34.1676 79.9623 34.0417 79.9759 33.915 79.9805C34.0417 79.9759 34.1676 79.9623 34.293 79.9434ZM21.6943 64.3438C22.322 64.2599 22.7499 64.4246 23.0273 64.6592C23.2784 64.8716 23.5043 65.2252 23.5947 65.75L23.624 65.9854C23.7728 67.7112 23.7244 69.5775 23.6523 71.541C23.5843 73.3969 23.4967 75.3525 23.5664 77.2158C23.0639 79.0627 20.5573 78.9011 20.3779 76.8213C20.2291 75.0961 20.2776 73.2296 20.3496 71.2656C20.4183 69.3931 20.5068 67.4183 20.4336 65.54C20.5727 64.9122 21.0971 64.4241 21.6934 64.3428L21.6943 64.3438ZM57.7607 64.3438C58.3883 64.26 58.8166 64.4247 59.0938 64.6592C59.3446 64.8715 59.5697 65.2253 59.6602 65.75L59.6904 65.9854C59.8392 67.7112 59.7908 69.5775 59.7188 71.541C59.6507 73.3969 59.5621 75.3525 59.6318 77.2158C59.1293 79.0627 56.6227 78.9011 56.4434 76.8213C56.2946 75.0961 56.343 73.2296 56.415 71.2656C56.4837 69.3931 56.5732 67.4183 56.5 65.54C56.6379 64.9176 57.1541 64.4331 57.7441 64.3457L57.7607 64.3438ZM33.2334 24.1455C37.7814 22.8146 43.2986 22.812 47.7129 24.5107C52.0551 26.1818 55.2438 29.4383 55.6348 34.749C55.9482 39.0067 55.9558 46.049 55.6426 50.3008C55.4837 52.4584 54.4031 54.8772 52.9014 56.4004L52.8613 56.4404C52.5352 56.7633 52.1669 57.0456 51.7383 57.3447C51.3267 57.632 50.7702 57.9945 50.2939 58.3701C49.301 59.1533 48.3766 60.1952 48.0166 61.9121L47.9521 62.2656C47.5894 64.5881 47.6809 67.2319 47.7959 69.7295C47.9067 72.135 48.0397 74.4096 47.9062 76.4258L47.876 76.8252C47.6895 78.9921 44.95 79.0224 44.6504 77.0645C44.823 75.2731 44.7743 73.3453 44.6914 71.4521C44.6039 69.4526 44.4828 67.4959 44.5107 65.5801C44.567 61.7289 45.231 58.5312 47.5801 56.3418V56.3408C47.924 56.0202 48.302 55.7494 48.7354 55.457C49.1402 55.1839 49.6594 54.851 50.1201 54.4844C51.1428 53.6703 52.0355 52.574 52.3242 50.7227L52.3457 50.583L52.3408 50.4414C52.2609 48.0147 52.3729 45.4612 52.4609 42.8242C52.548 40.2161 52.6107 37.5372 52.4121 34.9824C52.2057 32.3234 51.034 30.345 49.2793 28.9854C47.576 27.6657 45.411 26.9921 43.2539 26.6895H43.2529C40.4939 26.3036 36.8719 26.3054 33.791 27.3555C30.6485 28.4266 27.8679 30.6917 27.5068 34.8193C27.2829 37.3759 27.3585 40.0741 27.4521 42.6865C27.547 45.3328 27.6597 47.8843 27.541 50.29L27.5332 50.4512L27.5596 50.6094C27.9079 52.715 29.1665 53.9559 30.3496 54.8809C30.6414 55.109 30.9408 55.3269 31.2207 55.5303C31.5071 55.7384 31.7743 55.9322 32.0352 56.1328C32.5546 56.5324 32.9958 56.921 33.3564 57.3633L33.5176 57.5674C35.1374 59.7047 35.5599 62.7217 35.5508 66.2754C35.5461 68.0926 35.4335 69.9175 35.3604 71.7764C35.291 73.5388 35.2603 75.3173 35.4248 76.9541C35.3365 77.9756 34.6358 78.4616 33.8467 78.4834C33.047 78.5054 32.3058 78.0466 32.1953 76.9521V76.9512C31.9847 74.8642 32.0742 72.5768 32.1797 70.1553C32.2702 68.0768 32.3728 65.8941 32.2617 63.8066L32.2002 62.918C32.0331 60.9706 31.3471 59.7741 30.3047 58.8613C29.8468 58.4604 29.3336 58.1272 28.9082 57.8457C28.5709 57.6225 28.2526 57.4097 27.9395 57.168L27.6279 56.915C25.7405 55.3089 24.5861 53.0275 24.2773 50.4961C24.4325 47.7347 24.295 44.8467 24.21 42.1279C24.122 39.314 24.0912 36.6633 24.4365 34.2539C24.7797 31.8592 25.4838 29.8013 26.7939 28.1289C28.0926 26.4713 30.0856 25.0669 33.2334 24.1455ZM64.1123 29.6553C67.2104 29.2321 70.685 29.8843 73.4287 31.4893C76.1186 33.0628 78.0121 35.4838 78.3271 38.6416C78.1344 41.2685 78.2711 44.0822 78.3848 46.7578C78.5025 49.5283 78.5959 52.1589 78.3418 54.5371C78.2696 55.2112 78.0035 56.1231 77.5996 57.0576C77.1973 57.9884 76.7074 58.8262 76.2627 59.3711C75.9412 59.765 75.5906 60.0958 75.2002 60.4395C74.8381 60.7582 74.3588 61.1568 73.9502 61.5684C73.0256 62.4997 72.2769 63.6706 72.1143 65.5703C71.9507 67.4776 72.037 69.4929 72.1162 71.3877C72.187 73.0819 72.2518 74.6845 72.1699 76.1846L72.126 76.8213C71.936 79.0311 69.094 79.0181 68.8848 76.9482C68.596 74.0914 68.6376 67.9975 68.9053 65.0791C69.0599 63.3885 69.8985 61.316 70.96 60.0166C71.2299 59.6861 71.5429 59.3875 71.9082 59.0645C72.243 58.7684 72.6996 58.3867 73.0869 58.0127C73.9362 57.1926 74.7625 56.1296 75.0225 54.4678L75.0469 54.3115L75.0381 54.1533C74.9143 51.8755 75.0564 49.3642 75.1709 46.7334C75.2763 44.3116 75.3571 41.794 75.1318 39.4668L75.083 39.0039C74.8243 36.7813 73.5594 35.2863 72.002 34.3564C70.6864 33.5711 69.1471 33.1715 67.7441 32.9795L67.1533 32.9102C66.6152 32.8558 66.0695 32.8566 65.6318 32.8535C65.1629 32.8502 64.7946 32.8429 64.4629 32.7979C63.8802 32.7186 63.5362 32.5495 63.2393 32.084C62.9727 31.666 62.9255 31.0694 63.1387 30.5264C63.3478 29.9942 63.7204 29.7089 64.1113 29.6553H64.1123ZM14.8301 29.6113C15.2428 29.6196 15.6144 29.6449 15.9121 29.6904C16.2448 29.7414 16.3468 29.7972 16.3213 29.7822C17.2417 30.3238 17.3573 31.7366 16.4746 32.4434C16.1356 32.7145 15.7714 32.821 15.2158 32.8545C14.9145 32.8726 14.6077 32.8679 14.207 32.8652C13.9239 32.8633 13.6007 32.863 13.2598 32.8828L12.9141 32.9102C11.3951 33.0629 9.62405 33.4517 8.13086 34.3242C6.59224 35.2234 5.30395 36.6744 5.01172 38.8467C4.68188 41.2973 4.77171 44.0423 4.89258 46.6631C5.01608 49.3411 5.17001 51.8851 5.03027 54.1445L5.02051 54.3076L5.0459 54.4697C5.30594 56.1307 6.1318 57.1933 6.98047 58.0127C7.36749 58.3863 7.826 58.7687 8.16016 59.0645C8.52491 59.3873 8.83611 59.6862 9.10547 60.0166H9.10645C10.7559 62.0373 11.2334 64.7228 11.2744 67.874C11.2948 69.4418 11.2089 71.0371 11.1406 72.6748C11.0765 74.212 11.03 75.7843 11.127 77.2764C10.9465 78.0636 10.3127 78.4758 9.55078 78.4766C8.7509 78.4773 8.1042 78.0267 7.97656 77.1572C7.74381 75.5695 7.80197 73.7008 7.89746 71.6553C7.98996 69.6739 8.11812 67.512 7.95215 65.5723C7.78973 63.672 7.04295 62.5008 6.11816 61.5693C5.7098 61.1581 5.2302 60.76 4.86816 60.4414C4.47784 60.0979 4.12696 59.7668 3.80469 59.3721C2.74932 58.0789 1.96315 56.1254 1.75781 54.3916L1.72461 54.0479C1.42674 50.0124 1.41449 43.1421 1.73145 39.1289C1.96481 36.1797 3.25074 33.993 5.14746 32.4561C7.07422 30.8949 9.69857 29.9543 12.6172 29.6953C13.1413 29.6492 14.0066 29.5949 14.8301 29.6113ZM49.0957 78.1064C49.0581 78.1974 49.0166 78.2848 48.9727 78.3691C49.0166 78.2848 49.0581 78.1974 49.0957 78.1064ZM30.8496 77.8281C30.8887 77.9568 30.9349 78.0793 30.9863 78.1963C30.9349 78.0793 30.8887 77.9568 30.8496 77.8281ZM49.3467 77.1416C49.3011 77.4954 49.215 77.8154 49.0967 78.1025C49.215 77.8154 49.3011 77.4953 49.3467 77.1416ZM24.8799 78.0156C24.8696 78.0416 24.8565 78.0663 24.8457 78.0918C24.859 78.0603 24.8742 78.0294 24.8867 77.9971L24.8799 78.0156ZM60.9453 78.0156C60.935 78.0416 60.9219 78.0663 60.9111 78.0918C60.9244 78.0603 60.9396 78.0294 60.9521 77.9971L60.9453 78.0156ZM43.167 77.2793C43.1812 77.3763 43.2 77.4706 43.2207 77.5625C43.2124 77.5257 43.2036 77.4888 43.1963 77.4512L43.167 77.2793ZM12.5986 76.8232H12.5996H12.5986ZM43.2412 75.7871C43.2212 76.2353 43.191 76.6744 43.1455 77.1025C43.191 76.6744 43.2212 76.2353 43.2412 75.7871ZM43.2656 73.6934C43.2666 73.7547 43.2668 73.8159 43.2676 73.877C43.2668 73.8159 43.2666 73.7547 43.2656 73.6934ZM49.2959 69.7422C49.3246 70.3605 49.354 70.98 49.3809 71.5957C49.354 70.98 49.3246 70.3605 49.2959 69.7422ZM6.45508 70.4199C6.43721 70.8077 6.41949 71.1966 6.40137 71.585C6.4195 71.1966 6.4372 70.8077 6.45508 70.4199ZM73.5811 70.54C73.576 70.4117 73.5711 70.2834 73.5664 70.1553C73.5711 70.2834 73.576 70.4117 73.5811 70.54ZM30.7432 68.6777C30.729 69.0321 30.7147 69.3871 30.6992 69.7422C30.7147 69.3871 30.729 69.0321 30.7432 68.6777ZM18.9434 68.542C18.9385 68.7356 18.9328 68.9296 18.9268 69.124C18.9328 68.9296 18.9385 68.7356 18.9434 68.542ZM55.0088 68.542C55.0039 68.7356 54.9983 68.9296 54.9922 69.124C54.9983 68.9296 55.0039 68.7356 55.0088 68.542ZM43.0205 67.1953C43.0301 67.6625 43.0463 68.1307 43.0645 68.5986C43.0463 68.1307 43.0301 67.6625 43.0205 67.1953ZM49.2354 68.2822C49.2299 68.1299 49.2243 67.9778 49.2197 67.8262C49.2243 67.9778 49.2299 68.1299 49.2354 68.2822ZM6.53125 67.249C6.53359 67.4191 6.53562 67.5903 6.53516 67.7627C6.53562 67.5903 6.53359 67.4191 6.53125 67.249ZM49.2119 67.5557C49.2071 67.3744 49.2034 67.1936 49.2002 67.0137C49.2033 67.1936 49.2071 67.3744 49.2119 67.5557ZM18.9639 67.1865C18.9635 67.2934 18.9639 67.4005 18.9629 67.5078C18.9639 67.4005 18.9635 67.2934 18.9639 67.1865ZM55.0293 67.1865C55.0289 67.2934 55.0294 67.4005 55.0283 67.5078C55.0294 67.4005 55.0289 67.2934 55.0293 67.1865ZM30.8047 66.6133C30.8012 66.8246 30.7975 67.0365 30.792 67.249C30.7975 67.0365 30.8012 66.8246 30.8047 66.6133ZM49.1943 66.5938C49.1928 66.4276 49.192 66.2622 49.1924 66.0977C49.192 66.2622 49.1928 66.4276 49.1943 66.5938ZM49.1963 65.7256C49.1984 65.5497 49.2013 65.3749 49.2061 65.2012C49.2013 65.3749 49.1984 65.5497 49.1963 65.7256ZM6.43262 65.4395C6.44324 65.5242 6.45331 65.611 6.46094 65.7002C6.45332 65.611 6.44324 65.5242 6.43262 65.4395ZM73.6162 65.6016C73.6217 65.5467 73.6262 65.4926 73.6328 65.4395C73.6262 65.4926 73.6217 65.5467 73.6162 65.6016ZM30.8086 65.2822C30.8096 65.368 30.8121 65.4539 30.8125 65.54C30.8121 65.4539 30.8096 65.368 30.8086 65.2822ZM6.39746 65.1982C6.39881 65.2064 6.40004 65.2145 6.40137 65.2227C6.40004 65.2145 6.39881 65.2064 6.39746 65.1982ZM6.34863 64.9424C6.35592 64.9762 6.36239 65.0104 6.36914 65.0449C6.36239 65.0104 6.35592 64.9762 6.34863 64.9424ZM73.6973 65.0449C73.7038 65.0115 73.7088 64.978 73.7158 64.9453C73.7088 64.978 73.7038 65.0115 73.6973 65.0449ZM6.2959 64.7217C6.30427 64.7535 6.31147 64.7858 6.31934 64.8184C6.31147 64.7858 6.30427 64.7535 6.2959 64.7217ZM49.2197 64.8184C49.2263 64.656 49.2347 64.4949 49.2441 64.335C49.2347 64.4949 49.2263 64.656 49.2197 64.8184ZM73.7471 64.8184C73.7549 64.7858 73.7621 64.7535 73.7705 64.7217C73.7621 64.7535 73.7549 64.7858 73.7471 64.8184ZM73.8066 64.5938C73.816 64.5619 73.8251 64.5302 73.835 64.499C73.8251 64.5302 73.816 64.5619 73.8066 64.5938ZM6.23633 64.5137C6.24446 64.5397 6.25102 64.5663 6.25879 64.5928C6.25102 64.5663 6.24445 64.5397 6.23633 64.5137ZM73.8711 64.3916C73.8811 64.3627 73.891 64.334 73.9014 64.3057C73.891 64.334 73.8811 64.3627 73.8711 64.3916ZM6.16504 64.3057C6.17429 64.3308 6.18348 64.3562 6.19238 64.3818C6.18349 64.3562 6.17429 64.3308 6.16504 64.3057ZM73.9404 64.2031C73.9524 64.1729 73.9641 64.1428 73.9766 64.1133C73.9641 64.1428 73.9524 64.1729 73.9404 64.2031ZM6.08105 64.0938C6.09375 64.1233 6.10598 64.1533 6.11816 64.1836C6.10599 64.1533 6.09375 64.1233 6.08105 64.0938ZM5.99023 63.8955C6.01072 63.9371 6.0304 63.9795 6.0498 64.0225C6.0304 63.9795 6.01072 63.9371 5.99023 63.8955ZM74.0322 63.9893C74.0417 63.9687 74.0508 63.948 74.0605 63.9277C74.0508 63.948 74.0417 63.9687 74.0322 63.9893ZM19.792 63.7168V63.7178V63.7168ZM5.89746 63.7188C5.92003 63.7595 5.94238 63.8007 5.96387 63.8428C5.94238 63.8007 5.92003 63.7595 5.89746 63.7188ZM74.1045 63.8389C74.1256 63.7977 74.1478 63.7576 74.1699 63.7178C74.1478 63.7576 74.1256 63.7977 74.1045 63.8389ZM49.373 62.9043C49.3384 63.1702 49.3099 63.4409 49.2861 63.7158C49.298 63.578 49.3106 63.4413 49.3252 63.3057L49.373 62.9043ZM5.8125 63.5732C5.83325 63.6074 5.85405 63.6417 5.87402 63.6768C5.85405 63.6417 5.83325 63.6074 5.8125 63.5732ZM74.1924 63.6758C74.2124 63.6407 74.2332 63.6064 74.2539 63.5723C74.2332 63.6064 74.2124 63.6407 74.1924 63.6758ZM5.71191 63.416C5.72989 63.4429 5.74814 63.4696 5.76562 63.4971C5.74814 63.4696 5.72989 63.4429 5.71191 63.416ZM74.3086 63.4854C74.3264 63.4576 74.345 63.4305 74.3633 63.4033C74.345 63.4305 74.3264 63.4576 74.3086 63.4854ZM5.63574 63.3057C5.64267 63.3154 5.64939 63.3252 5.65625 63.335C5.64939 63.3252 5.64267 63.3154 5.63574 63.3057ZM74.416 63.3262C74.422 63.3178 74.4276 63.3091 74.4336 63.3008C74.4276 63.3091 74.422 63.3178 74.416 63.3262ZM74.5635 63.1318C74.612 63.0702 74.6609 63.0093 74.7119 62.9502C74.6609 63.0093 74.612 63.0702 74.5635 63.1318ZM5.36621 62.9648C5.40923 63.015 5.45096 63.0662 5.49219 63.1182C5.45096 63.0662 5.40922 63.015 5.36621 62.9648ZM30.6807 62.7715C30.6915 62.8607 30.7009 62.9524 30.709 63.0469C30.7009 62.9524 30.6915 62.8607 30.6807 62.7715ZM74.7988 62.8516C74.8543 62.7903 74.9109 62.7301 74.9688 62.6709C74.9109 62.7301 74.8543 62.7903 74.7988 62.8516ZM22.2207 62.8281H22.2197H22.2207ZM5.1084 62.6826C5.15889 62.7345 5.20818 62.7873 5.25684 62.8408C5.20819 62.7873 5.15888 62.7345 5.1084 62.6826ZM75.0801 62.5596C75.131 62.5095 75.182 62.4593 75.2344 62.4102C75.182 62.4593 75.131 62.5095 75.0801 62.5596ZM4.88184 62.459C4.91594 62.4914 4.94993 62.5238 4.9834 62.5566C4.94993 62.5238 4.91594 62.4914 4.88184 62.459ZM75.3389 62.3125C75.3892 62.2664 75.4408 62.2215 75.4922 62.1758C75.4408 62.2215 75.3892 62.2665 75.3389 62.3125ZM30.5449 62.0205C30.5532 62.0539 30.5605 62.0878 30.5684 62.1221C30.5605 62.0878 30.5532 62.0539 30.5449 62.0205ZM30.4854 61.8057C30.4945 61.8363 30.504 61.867 30.5127 61.8984C30.504 61.867 30.4945 61.8363 30.4854 61.8057ZM30.4209 61.6064C30.4263 61.622 30.4322 61.6375 30.4375 61.6533C30.4322 61.6375 30.4263 61.622 30.4209 61.6064ZM30.3389 61.3906C30.3506 61.4189 30.3618 61.4475 30.373 61.4766C30.3618 61.4475 30.3506 61.4189 30.3389 61.3906ZM30.2539 61.2002C30.2711 61.2361 30.2883 61.2724 30.3047 61.3096C30.2883 61.2724 30.2711 61.2361 30.2539 61.2002ZM30.1553 61.0088C30.1751 61.0446 30.1949 61.0809 30.2139 61.1182C30.1949 61.0809 30.1751 61.0446 30.1553 61.0088ZM30.0693 60.8623C30.0895 60.895 30.1095 60.9281 30.1289 60.9619C30.1095 60.9281 30.0895 60.895 30.0693 60.8623ZM29.9697 60.71C29.99 60.7393 30.0106 60.7686 30.0303 60.7988C30.0106 60.7686 29.99 60.7393 29.9697 60.71ZM29.8428 60.5381C29.8689 60.5713 29.8947 60.6051 29.9199 60.6396C29.8947 60.6051 29.8689 60.5713 29.8428 60.5381ZM29.7617 60.4395C29.7784 60.4592 29.7952 60.4789 29.8115 60.499C29.7952 60.4789 29.7784 60.4592 29.7617 60.4395ZM2.27441 59.8281C2.39003 59.9922 2.50802 60.1513 2.63086 60.3027C2.50802 60.1513 2.39002 59.9922 2.27441 59.8281ZM29.3809 60.0488C29.4258 60.0896 29.4695 60.1314 29.5127 60.1738C29.4695 60.1314 29.4258 60.0896 29.3809 60.0488ZM29.1006 59.8115C29.1525 59.8526 29.2038 59.894 29.2539 59.9365C29.2038 59.894 29.1525 59.8526 29.1006 59.8115ZM28.8291 59.6064C28.8774 59.6413 28.9257 59.6755 28.9727 59.7109C28.9257 59.6755 28.8774 59.6413 28.8291 59.6064ZM27.7275 58.8604C28.059 59.0852 28.3772 59.2889 28.6748 59.4961C28.3772 59.2889 28.059 59.0852 27.7275 58.8604ZM73.4521 54.6748H73.4531H73.4521ZM79.9395 53.2842C79.9256 53.5327 79.9113 53.7796 79.8916 54.0244C79.9113 53.7796 79.9256 53.5327 79.9395 53.2842ZM0.0205078 49.002C0.0309491 49.613 0.0462299 50.2134 0.0644531 50.7949C0.0462212 50.2134 0.0309597 49.613 0.0205078 49.002ZM22.8398 48.8682C22.8299 49.3704 22.8123 49.8694 22.7852 50.3643C22.8123 49.8694 22.8299 49.3704 22.8398 48.8682ZM73.6729 46.6943C73.645 47.3335 73.6152 47.9734 73.5879 48.6104C73.6152 47.9734 73.645 47.3335 73.6729 46.6943ZM73.7451 44.7861C73.7283 45.3441 73.7057 45.9055 73.6816 46.4678C73.7057 45.9055 73.7283 45.3441 73.7451 44.7861ZM79.8711 46.4678C79.8471 45.9069 79.8234 45.3457 79.8018 44.7861C79.8234 45.3457 79.8471 45.9069 79.8711 46.4678ZM22.7861 44.3848C22.7998 44.8125 22.8127 45.2401 22.8232 45.667C22.8127 45.2401 22.7998 44.8125 22.7861 44.3848ZM6.32617 45.0977C6.3218 44.9751 6.31734 44.8527 6.31348 44.7305C6.31734 44.8527 6.3218 44.9751 6.32617 45.0977ZM73.7666 43.8867C73.7627 44.0973 73.7577 44.3086 73.752 44.5205C73.7577 44.3086 73.7627 44.0973 73.7666 43.8867ZM6.30176 44.2891C6.29726 44.1157 6.29316 43.9428 6.29004 43.7705C6.29316 43.9428 6.29726 44.1157 6.30176 44.2891ZM79.7803 44.1943C79.774 44.0144 79.7681 43.8347 79.7627 43.6553C79.7681 43.8347 79.774 44.0144 79.7803 44.1943ZM73.7773 42.9629C73.7768 43.1594 73.7741 43.3567 73.7715 43.5547C73.7741 43.3567 73.7768 43.1594 73.7773 42.9629ZM79.7568 43.4551C79.7497 43.1982 79.744 42.9419 79.7393 42.6865C79.744 42.9419 79.7497 43.1982 79.7568 43.4551ZM6.28418 43.4092C6.2822 43.2419 6.28061 43.0752 6.28027 42.9092C6.28061 43.0752 6.2822 43.2419 6.28418 43.4092ZM22.6914 41.3623C22.7044 41.8469 22.7192 42.3332 22.7354 42.8203C22.7192 42.3332 22.7044 41.8469 22.6914 41.3623ZM73.7695 42.0459C73.7728 42.2332 73.7745 42.4213 73.7754 42.6104C73.7745 42.4213 73.7728 42.2332 73.7695 42.0459ZM6.28418 42.3467C6.28556 42.2179 6.28643 42.0897 6.28906 41.9619C6.28643 42.0897 6.28556 42.2179 6.28418 42.3467ZM79.7344 42.3467C79.7312 42.1138 79.729 41.8816 79.7285 41.6504C79.729 41.8816 79.7312 42.1138 79.7344 42.3467ZM51.0176 40.9619C51.0082 41.3512 50.9955 41.7413 50.9834 42.1318C50.9955 41.7413 51.0082 41.3512 51.0176 40.9619ZM28.8857 40.6279C28.8794 40.3748 28.8745 40.1222 28.8701 39.8701C28.8745 40.1222 28.8794 40.3748 28.8857 40.6279ZM73.7432 41.1572C73.7499 41.3208 73.7562 41.4852 73.7607 41.6504C73.7562 41.4852 73.7499 41.3208 73.7432 41.1572ZM6.30176 41.5303C6.30779 41.3468 6.3151 41.1644 6.32422 40.9834C6.3151 41.1644 6.30779 41.3468 6.30176 41.5303ZM79.7295 41.3623C79.7303 41.1456 79.7326 40.9297 79.7363 40.7148C79.7326 40.9297 79.7303 41.1456 79.7295 41.3623ZM0.135742 40.6143C0.127827 40.7676 0.121472 40.9233 0.114258 41.0811C0.120615 40.942 0.125911 40.8046 0.132812 40.6689L0.135742 40.6143ZM73.6924 40.2539C73.7043 40.4205 73.7145 40.5882 73.7236 40.7568C73.7145 40.5882 73.7043 40.4205 73.6924 40.2539ZM51.0352 40.0439C51.0319 40.2519 51.0289 40.4603 51.0244 40.6689C51.0289 40.4603 51.0319 40.2519 51.0352 40.0439ZM79.7441 40.3477C79.7491 40.157 79.7559 39.9672 79.7637 39.7783C79.7559 39.9672 79.7491 40.157 79.7441 40.3477ZM51.0439 39.2178C51.0429 39.3861 51.0421 39.5547 51.04 39.7236C51.0421 39.5547 51.0429 39.3861 51.0439 39.2178ZM28.8643 39.5459C28.8624 39.4067 28.8624 39.2677 28.8613 39.1289C28.8624 39.2677 28.8624 39.4067 28.8643 39.5459ZM73.5498 38.8711C73.563 38.9454 73.5729 39.021 73.583 39.0977C73.5729 39.021 73.563 38.9454 73.5498 38.8711ZM51.043 38.2031C51.0447 38.4002 51.046 38.5978 51.0459 38.7959C51.046 38.5978 51.0447 38.4002 51.043 38.2031ZM6.56055 38.6758C6.57415 38.6122 6.58758 38.5492 6.60352 38.4873C6.58758 38.5492 6.57415 38.6122 6.56055 38.6758ZM28.8574 38.6348C28.8573 38.4422 28.8595 38.2501 28.8613 38.0586C28.8596 38.2501 28.8573 38.4422 28.8574 38.6348ZM73.418 38.3193C73.4325 38.3675 73.4449 38.4166 73.458 38.4658C73.4449 38.4166 73.4325 38.3675 73.418 38.3193ZM6.64453 38.3477C6.65872 38.2991 6.67187 38.2506 6.6875 38.2031C6.67187 38.2506 6.65872 38.2991 6.64453 38.3477ZM73.3301 38.0586C73.3465 38.103 73.3618 38.148 73.377 38.1934C73.3618 38.148 73.3465 38.103 73.3301 38.0586ZM6.72754 38.0908C6.74309 38.0476 6.75767 38.0042 6.77441 37.9619C6.75767 38.0042 6.74309 38.0476 6.72754 38.0908ZM73.2256 37.8018C73.2463 37.8485 73.2649 37.8964 73.2842 37.9443C73.2649 37.8964 73.2463 37.8485 73.2256 37.8018ZM6.83105 37.8291C6.84717 37.7921 6.86285 37.755 6.87988 37.7188C6.86285 37.755 6.84717 37.7921 6.83105 37.8291ZM50.9805 36.0283C51.0119 36.6221 51.0299 37.223 51.0391 37.8291C51.0299 37.223 51.0119 36.6221 50.9805 36.0283ZM73.1152 37.5723C73.1355 37.6115 73.1547 37.6513 73.1738 37.6914C73.1547 37.6513 73.1355 37.6115 73.1152 37.5723ZM28.8652 37.6816C28.8674 37.5492 28.8718 37.417 28.875 37.2852C28.8718 37.417 28.8674 37.5492 28.8652 37.6816ZM6.93359 37.6094C6.9538 37.5693 6.97379 37.5294 6.99512 37.4902C6.97379 37.5294 6.9538 37.5693 6.93359 37.6094ZM72.9814 37.3311C73.0036 37.368 73.0247 37.4056 73.0459 37.4434C73.0247 37.4056 73.0036 37.368 72.9814 37.3311ZM7.07617 37.3506C7.09271 37.3228 7.10887 37.2949 7.12598 37.2676C7.10887 37.2949 7.09271 37.3228 7.07617 37.3506ZM72.832 37.0996C72.8628 37.1442 72.8927 37.1894 72.9219 37.2354C72.8927 37.1894 72.8628 37.1442 72.832 37.0996ZM7.18848 37.1719C7.22351 37.1191 7.25975 37.0675 7.29688 37.0166C7.25975 37.0675 7.2235 37.1191 7.18848 37.1719ZM72.6904 36.9062C72.7186 36.9426 72.7464 36.9793 72.7734 37.0166C72.7464 36.9793 72.7186 36.9426 72.6904 36.9062ZM7.35156 36.9434C7.3759 36.9114 7.40063 36.8799 7.42578 36.8486C7.40063 36.8799 7.3759 36.9114 7.35156 36.9434ZM72.5195 36.6982C72.5493 36.7323 72.5786 36.7668 72.6074 36.8018C72.5786 36.7668 72.5493 36.7323 72.5195 36.6982ZM7.50488 36.751C7.53841 36.7117 7.57359 36.6739 7.6084 36.6357C7.57359 36.6739 7.5384 36.7117 7.50488 36.751ZM72.3027 36.4658C72.3516 36.5146 72.3996 36.5643 72.4463 36.6152C72.3996 36.5643 72.3516 36.5146 72.3027 36.4658ZM7.66016 36.5781C7.69981 36.5361 7.74105 36.4956 7.78223 36.4551C7.74105 36.4957 7.69981 36.5361 7.66016 36.5781ZM72.1299 36.3018C72.1808 36.3479 72.2314 36.3942 72.2803 36.4424C72.2314 36.3942 72.1808 36.3479 72.1299 36.3018ZM7.85742 36.3818C7.90081 36.3409 7.94533 36.3012 7.99023 36.2617C7.94533 36.3012 7.90081 36.3409 7.85742 36.3818ZM71.9043 36.1084C71.9661 36.1582 72.0267 36.2093 72.0859 36.2617C72.0267 36.2093 71.9661 36.1582 71.9043 36.1084ZM8.03223 36.2236C8.08061 36.1821 8.13066 36.1424 8.18066 36.1025C8.13066 36.1424 8.08061 36.1821 8.03223 36.2236ZM71.6953 35.9482C71.7615 35.9965 71.8269 36.0457 71.8906 36.0967C71.8269 36.0457 71.7615 35.9965 71.6953 35.9482ZM71.2432 35.6484C71.3183 35.6934 71.3921 35.7402 71.4648 35.7881C71.3921 35.7402 71.3183 35.6934 71.2432 35.6484ZM71.0078 35.5146C71.0665 35.5466 71.1242 35.5798 71.1816 35.6133C71.1242 35.5798 71.0665 35.5466 71.0078 35.5146ZM8.99414 35.5596C9.03186 35.5385 9.06919 35.5165 9.10742 35.4961C9.06919 35.5165 9.03186 35.5385 8.99414 35.5596ZM70.7939 35.4033C70.8301 35.4214 70.8657 35.4403 70.9014 35.459C70.8657 35.4403 70.8301 35.4214 70.7939 35.4033ZM9.22559 35.4346C9.26002 35.417 9.2943 35.3989 9.3291 35.3818C9.2943 35.3989 9.26002 35.417 9.22559 35.4346ZM70.5322 35.2793C70.5712 35.2969 70.6099 35.3148 70.6484 35.333C70.6099 35.3148 70.5712 35.2969 70.5322 35.2793ZM9.44238 35.3281C9.49317 35.3042 9.54423 35.2807 9.5957 35.2578C9.54423 35.2807 9.49317 35.3042 9.44238 35.3281ZM70.2783 35.1689C70.3325 35.1913 70.386 35.2149 70.4395 35.2383C70.386 35.2149 70.3325 35.1913 70.2783 35.1689ZM9.68066 35.2207C9.72469 35.2017 9.76901 35.1833 9.81348 35.165C9.76901 35.1833 9.72469 35.2017 9.68066 35.2207ZM70.0449 35.0771C70.0992 35.0977 70.1534 35.1181 70.207 35.1396C70.1534 35.1181 70.0992 35.0977 70.0449 35.0771ZM9.96582 35.1045C9.99319 35.0939 10.0203 35.0826 10.0479 35.0723C10.0203 35.0826 9.99319 35.0939 9.96582 35.1045ZM69.54 34.9033C69.5765 34.9148 69.6131 34.9256 69.6494 34.9375C69.6131 34.9256 69.5765 34.9148 69.54 34.9033ZM10.4434 34.9346C10.5438 34.9018 10.6454 34.8725 10.7471 34.8428C10.6454 34.8725 10.5438 34.9018 10.4434 34.9346ZM68.8828 34.7217C68.9673 34.7424 69.0519 34.7625 69.1357 34.7852C69.0519 34.7625 68.9673 34.7424 68.8828 34.7217ZM10.9561 34.7812C11.0577 34.7538 11.1603 34.7297 11.2627 34.7051C11.1603 34.7297 11.0577 34.7538 10.9561 34.7812ZM68.3281 34.5986C68.4202 34.6167 68.5126 34.6341 68.6045 34.6543C68.5126 34.6341 68.4202 34.6167 68.3281 34.5986ZM11.4863 34.6514C11.5883 34.6289 11.6908 34.6097 11.793 34.5898C11.6908 34.6097 11.5883 34.6289 11.4863 34.6514ZM67.5488 34.4668C67.7244 34.4909 67.9007 34.5187 68.0771 34.5498C67.9007 34.5187 67.7244 34.4909 67.5488 34.4668ZM13.0635 34.4023C13.1566 34.393 13.2499 34.3853 13.3428 34.3799C13.25 34.3853 13.1566 34.393 13.0635 34.4023ZM13.4229 34.376C13.4861 34.3729 13.5492 34.3699 13.6123 34.3682C13.5492 34.3699 13.4861 34.3729 13.4229 34.376ZM65.4375 34.3496C65.8039 34.3536 66.1737 34.355 66.5391 34.3711C66.1737 34.355 65.8039 34.3536 65.4375 34.3496ZM14.4033 34.3662C14.2014 34.3646 13.9981 34.3647 13.7939 34.3672C13.9981 34.3647 14.2014 34.3646 14.4033 34.3662ZM62.5811 33.5947C62.4932 33.52 62.4078 33.4379 62.3252 33.3477C62.4078 33.4379 62.4932 33.52 62.5811 33.5947ZM62.0928 33.0605C62.1526 33.1435 62.215 33.2204 62.2783 33.293C62.2564 33.2678 62.2334 33.2432 62.2119 33.2168L62.0928 33.0605ZM61.8086 32.5859C61.8586 32.6903 61.9144 32.7926 61.9775 32.8916C61.9144 32.7926 61.8586 32.6903 61.8086 32.5859ZM18.3242 32.4033H18.3252H18.3242ZM76.3018 31.7266C76.432 31.8428 76.5589 31.9625 76.6836 32.084C76.5589 31.9625 76.432 31.8428 76.3018 31.7266ZM63.2139 28.3682C63.1782 28.3842 63.1431 28.4013 63.1084 28.4189C63.1431 28.4013 63.1782 28.3842 63.2139 28.3682ZM49.1299 23.4766V23.4756V23.4766ZM14.8291 7.83008C17.5503 7.51892 19.5641 8.31826 20.9541 9.6084C22.3742 10.9267 23.2387 12.8498 23.4365 14.8984C23.6344 16.9477 23.1536 19.0128 22.0254 20.5928C20.9212 22.139 19.1377 23.31 16.5068 23.5361C13.8727 23.7625 11.9108 22.9439 10.5498 21.6533C9.16161 20.3369 8.31571 18.4467 8.11719 16.4395C7.91865 14.4317 8.37821 12.4074 9.4707 10.8398C10.5416 9.30334 12.2746 8.12258 14.8291 7.83008ZM63.3311 7.83008C66.052 7.51902 68.0652 8.31838 69.4551 9.6084C70.8752 10.9267 71.7406 12.8497 71.9385 14.8984C72.1364 16.9477 71.6555 19.0128 70.5273 20.5928C69.4232 22.139 67.6395 23.3099 65.0088 23.5361C62.3747 23.7625 60.4127 22.9438 59.0518 21.6533C57.6635 20.3369 56.8167 18.4467 56.6182 16.4395C56.4196 14.4318 56.8802 12.4074 57.9727 10.8398C59.0436 9.30338 60.7766 8.12256 63.3311 7.83008ZM18.8047 12.123C17.8538 11.2887 16.5618 10.8989 15.0811 11.0967C12.1799 11.4847 10.998 14.0529 11.2305 16.1797C11.3484 17.258 11.823 18.3527 12.7061 19.1543C13.6152 19.9795 14.8557 20.4001 16.292 20.2646C17.7209 20.1296 18.8339 19.4263 19.5312 18.4199C20.2055 17.4466 20.4473 16.2606 20.3311 15.1602C20.2145 14.0577 19.7261 12.9317 18.8047 12.123ZM67.3076 12.123C66.3566 11.2886 65.064 10.8986 63.583 11.0967C60.6822 11.4849 59.5009 14.053 59.7334 16.1797C59.8513 17.258 60.3259 18.3527 61.209 19.1543C62.1181 19.9795 63.3586 20.4001 64.7949 20.2646L65.0596 20.2324C66.3619 20.0402 67.3814 19.3636 68.0352 18.4199C68.7094 17.4466 68.9493 16.2606 68.833 15.1602C68.7164 14.0577 68.229 12.9317 67.3076 12.123ZM40.7764 18.791C40.5355 18.8049 40.2899 18.8149 40.0391 18.8125C40.2899 18.8149 40.5355 18.8049 40.7764 18.791ZM15.958 18.7852C15.895 18.7882 15.8327 18.789 15.7715 18.7891C15.8328 18.789 15.8949 18.7882 15.958 18.7852ZM64.4609 18.7852C64.398 18.7882 64.3356 18.789 64.2744 18.7891C64.3357 18.789 64.3979 18.7882 64.4609 18.7852ZM15.25 18.7529C15.3308 18.7647 15.4135 18.7732 15.498 18.7793C15.4135 18.7732 15.3308 18.7647 15.25 18.7529ZM63.7529 18.7529C63.8337 18.7647 63.9164 18.7732 64.001 18.7793C63.9164 18.7732 63.8337 18.7647 63.7529 18.7529ZM14.915 18.6855C15.0027 18.7081 15.0928 18.7268 15.1855 18.7422C15.0928 18.7268 15.0027 18.7081 14.915 18.6855ZM63.5723 18.7217C63.5216 18.7113 63.4719 18.6991 63.4229 18.6865C63.4719 18.6991 63.5216 18.7113 63.5723 18.7217ZM63.3613 18.6699C63.3308 18.6614 63.3004 18.6529 63.2705 18.6436C63.3004 18.6529 63.3308 18.6614 63.3613 18.6699ZM14.8525 18.668C14.828 18.6611 14.8034 18.6549 14.7793 18.6475C14.8034 18.6549 14.828 18.6611 14.8525 18.668ZM63.2061 18.6221C63.1791 18.613 63.1524 18.6035 63.126 18.5938C63.1524 18.6035 63.1791 18.613 63.2061 18.6221ZM14.6787 18.6143C14.6606 18.608 14.6428 18.6013 14.625 18.5947C14.6428 18.6013 14.6606 18.608 14.6787 18.6143ZM14.5283 18.5576C14.5159 18.5525 14.5035 18.5473 14.4912 18.542C14.5035 18.5473 14.5159 18.5525 14.5283 18.5576ZM63.0312 18.5576C63.0188 18.5525 63.0065 18.5473 62.9941 18.542C63.0065 18.5473 63.0188 18.5525 63.0312 18.5576ZM14.3955 18.499C14.3774 18.4905 14.3596 18.4815 14.3418 18.4727C14.3596 18.4815 14.3774 18.4905 14.3955 18.499ZM62.8984 18.499C62.8803 18.4905 62.8625 18.4815 62.8447 18.4727C62.8625 18.4815 62.8803 18.4905 62.8984 18.499ZM14.2754 18.4385C14.2531 18.4266 14.2309 18.4147 14.209 18.4023C14.2309 18.4147 14.2531 18.4266 14.2754 18.4385ZM62.7783 18.4385C62.7507 18.4238 62.7232 18.409 62.6963 18.3936C62.7232 18.409 62.7507 18.4238 62.7783 18.4385ZM62.6631 18.374C62.6388 18.3596 62.6145 18.3452 62.5908 18.3301C62.6145 18.3452 62.6388 18.3596 62.6631 18.374ZM14.1494 18.3672C14.1313 18.3563 14.1135 18.3452 14.0957 18.334C14.1135 18.3452 14.1313 18.3563 14.1494 18.3672ZM62.1885 18.0176C62.1501 17.9818 62.1143 17.9439 62.0781 17.9062C62.1143 17.9439 62.1501 17.9818 62.1885 18.0176ZM13.6797 18.0117C13.6435 17.9778 13.6094 17.9419 13.5752 17.9062C13.6094 17.9419 13.6435 17.9778 13.6797 18.0117ZM61.9893 17.8125C61.9524 17.7705 61.9181 17.7266 61.8838 17.6826C61.9181 17.7266 61.9524 17.7705 61.9893 17.8125ZM13.4854 17.8115C13.4488 17.7698 13.4149 17.7262 13.3809 17.6826C13.4149 17.7262 13.4488 17.7698 13.4854 17.8115ZM13.3076 17.5879C13.2821 17.5524 13.2593 17.5151 13.2354 17.4785C13.2593 17.5151 13.2821 17.5524 13.3076 17.5879ZM61.8105 17.5879C61.785 17.5524 61.7622 17.5151 61.7383 17.4785C61.7622 17.5151 61.785 17.5523 61.8105 17.5879ZM13.1523 17.3506C13.1298 17.3121 13.1107 17.2718 13.0898 17.2324C13.1107 17.2718 13.1298 17.3121 13.1523 17.3506ZM61.6553 17.3506C61.6328 17.3121 61.6136 17.2718 61.5928 17.2324C61.6136 17.2718 61.6328 17.3121 61.6553 17.3506ZM39.1709 1.52344C39.715 1.48762 40.6982 1.49223 41.0986 1.54004V1.54102C45.8226 2.11022 48.0249 6.06698 47.7021 10.0771C47.5416 12.0713 46.747 13.9537 45.4082 15.2842C44.0954 16.5885 42.1787 17.4449 39.5664 17.2959C34.8352 17.0258 32.4146 13.4627 32.3203 9.63184C32.2255 5.77327 34.4956 2.07982 38.9678 1.54102L39.1709 1.52344ZM13.0205 17.0986C13.0025 17.0602 12.9873 17.0206 12.9707 16.9814C12.9872 17.0206 13.0025 17.0602 13.0205 17.0986ZM61.5234 17.0986C61.4989 17.0465 61.4778 16.9929 61.4561 16.9395C61.4778 16.9929 61.4989 17.0465 61.5234 17.0986ZM61.417 16.8467C61.3924 16.7806 61.372 16.7131 61.3516 16.6455C61.372 16.7131 61.3924 16.7806 61.417 16.8467ZM12.9102 16.835C12.8873 16.7727 12.8678 16.7091 12.8486 16.6455C12.8678 16.7091 12.8873 16.7727 12.9102 16.835ZM12.7607 16.2998C12.7448 16.2171 12.7336 16.1335 12.7236 16.0498C12.7336 16.1335 12.7448 16.2171 12.7607 16.2998ZM61.2637 16.2998C61.2478 16.2171 61.2365 16.1335 61.2266 16.0498C61.2365 16.1335 61.2478 16.2171 61.2637 16.2998ZM6.57715 15.7412C6.57992 15.8819 6.58448 16.0226 6.59277 16.1631C6.58447 16.0226 6.57992 15.8819 6.57715 15.7412ZM55.0938 14.9531C55.0719 15.3557 55.0709 15.76 55.0947 16.1631C55.0709 15.76 55.0719 15.3557 55.0938 14.9531ZM12.6992 15.7295C12.6966 15.6351 12.6973 15.5405 12.7021 15.4463C12.6972 15.5405 12.6966 15.6351 12.6992 15.7295ZM61.2021 15.7295C61.1995 15.635 61.2002 15.5405 61.2051 15.4463C61.2002 15.5405 61.1995 15.635 61.2021 15.7295ZM12.71 15.3643C12.7151 15.2957 12.7203 15.2272 12.7295 15.1592C12.7203 15.2272 12.7151 15.2957 12.71 15.3643ZM61.2129 15.3643C61.2181 15.2957 61.2232 15.2272 61.2324 15.1592C61.2232 15.2272 61.2181 15.2957 61.2129 15.3643ZM12.7412 15.0879C12.7521 15.0182 12.7641 14.9487 12.7793 14.8799C12.7641 14.9487 12.7521 15.0182 12.7412 15.0879ZM61.2441 15.0879C61.2551 15.0182 61.267 14.9487 61.2822 14.8799C61.267 14.9487 61.2551 15.0182 61.2441 15.0879ZM12.8125 14.7539C12.8253 14.7053 12.8366 14.6563 12.8516 14.6084C12.8366 14.6563 12.8253 14.7053 12.8125 14.7539ZM61.3154 14.7539C61.3282 14.7053 61.3395 14.6563 61.3545 14.6084C61.3395 14.6563 61.3282 14.7053 61.3154 14.7539ZM12.8867 14.5068C12.9055 14.453 12.9246 14.3994 12.9463 14.3467C12.9246 14.3994 12.9055 14.453 12.8867 14.5068ZM61.3896 14.5068C61.4084 14.4531 61.4267 14.3993 61.4482 14.3467C61.4266 14.3992 61.4084 14.4531 61.3896 14.5068ZM12.9922 14.2451C13.0166 14.1912 13.0408 14.1373 13.0684 14.085C13.0408 14.1373 13.0166 14.1912 12.9922 14.2451ZM61.499 14.2354C61.5214 14.1865 61.5434 14.1375 61.5684 14.0898C61.5434 14.1375 61.5214 14.1865 61.499 14.2354ZM43.0566 5.87695C42.1056 5.04227 40.8132 4.65257 39.332 4.85059C36.4309 5.23859 35.2492 7.80686 35.4814 9.93359C35.5993 11.0118 36.0733 12.1075 36.9561 12.9092C37.8652 13.7346 39.1074 14.155 40.5439 14.0195C41.9731 13.8845 43.0868 13.1815 43.7842 12.1748C44.4584 11.2013 44.6984 10.0146 44.582 8.91406C44.4654 7.81154 43.978 6.68571 43.0566 5.87695ZM13.124 13.9883C13.1511 13.9411 13.1773 13.8933 13.207 13.8477C13.1773 13.8933 13.1511 13.9411 13.124 13.9883ZM61.6279 13.9873C61.6551 13.9401 61.6812 13.8923 61.7109 13.8467C61.6812 13.8923 61.6551 13.9401 61.6279 13.9873ZM61.7822 13.7471C61.8123 13.705 61.8416 13.6625 61.874 13.6221C61.8416 13.6625 61.8123 13.705 61.7822 13.7471ZM13.293 13.7285C13.3171 13.6954 13.3396 13.6611 13.3652 13.6289C13.3396 13.6611 13.3171 13.6954 13.293 13.7285ZM62.0176 13.4551C62.0277 13.4444 62.0386 13.4344 62.0488 13.4238C62.0386 13.4344 62.0277 13.4444 62.0176 13.4551ZM13.5156 13.4541C13.5254 13.4437 13.5359 13.4341 13.5459 13.4238C13.5359 13.4341 13.5254 13.4437 13.5156 13.4541ZM13.709 13.2686C13.7381 13.2431 13.7674 13.2177 13.7979 13.1934C13.7674 13.2177 13.7381 13.2431 13.709 13.2686ZM62.2178 13.2627C62.244 13.2399 62.2705 13.2172 62.2979 13.1953C62.2705 13.2172 62.244 13.2399 62.2178 13.2627ZM13.8174 13.1777C13.8438 13.157 13.871 13.1371 13.8984 13.1172C13.8711 13.1371 13.8438 13.157 13.8174 13.1777ZM62.3203 13.1777C62.3468 13.157 62.374 13.1371 62.4014 13.1172C62.374 13.1371 62.3468 13.157 62.3203 13.1777ZM13.9463 13.083C13.973 13.0644 14.0007 13.047 14.0283 13.0293C14.0007 13.047 13.973 13.0645 13.9463 13.083ZM62.4492 13.083C62.476 13.0644 62.5036 13.047 62.5312 13.0293C62.5036 13.047 62.476 13.0645 62.4492 13.083ZM14.3252 12.8623C14.2352 12.9056 14.1489 12.9529 14.0664 13.0039C14.1489 12.9529 14.2352 12.9056 14.3252 12.8623ZM62.7939 12.8799C62.7163 12.9185 62.6412 12.9595 62.5693 13.0039C62.6412 12.9594 62.7163 12.9185 62.7939 12.8799ZM62.8359 12.8584C62.8655 12.8443 62.8954 12.8306 62.9258 12.8174C62.8954 12.8306 62.8655 12.8443 62.8359 12.8584ZM14.4736 12.7959C14.4996 12.7852 14.5262 12.7757 14.5527 12.7656C14.5262 12.7757 14.4996 12.7852 14.4736 12.7959ZM62.9756 12.7959C63.0104 12.7815 63.0462 12.7691 63.082 12.7559C63.0462 12.7691 63.0104 12.7815 62.9756 12.7959ZM14.8662 12.665C14.9337 12.6473 15.0026 12.631 15.0732 12.6172C15.0026 12.631 14.9337 12.6473 14.8662 12.665ZM63.3691 12.665C63.4462 12.6448 63.5252 12.6264 63.6064 12.6113C63.5252 12.6264 63.4462 12.6448 63.3691 12.665ZM40.209 12.54C40.1459 12.5431 40.0837 12.5439 40.0225 12.5439C40.0837 12.5439 40.1459 12.5431 40.209 12.54ZM39.498 12.5078C39.5813 12.52 39.6667 12.528 39.7539 12.5342C39.6667 12.528 39.5813 12.52 39.498 12.5078ZM39.1719 12.4414C39.2608 12.4641 39.3521 12.4837 39.4463 12.499C39.3522 12.4837 39.2608 12.4641 39.1719 12.4414ZM39.1211 12.4277C39.0842 12.4176 39.0476 12.4078 39.0117 12.3965C39.0476 12.4078 39.0842 12.4176 39.1211 12.4277ZM38.9746 12.3838C38.9407 12.3726 38.9071 12.3609 38.874 12.3486C38.9071 12.3609 38.9406 12.3726 38.9746 12.3838ZM38.7715 12.3086C38.7624 12.3048 38.7531 12.3017 38.7441 12.2979C38.7531 12.3017 38.7624 12.3048 38.7715 12.3086ZM38.6611 12.2598C38.6346 12.2474 38.608 12.2357 38.582 12.2227C38.608 12.2357 38.6346 12.2474 38.6611 12.2598ZM38.5459 12.2031C38.5163 12.1877 38.4868 12.1726 38.458 12.1562C38.4868 12.1726 38.5163 12.1877 38.5459 12.2031ZM38.4062 12.126C38.3842 12.1128 38.3624 12.0996 38.3408 12.0859C38.3624 12.0996 38.3842 12.1128 38.4062 12.126ZM38.1299 11.9375C38.1253 11.9339 38.1208 11.9303 38.1162 11.9268C38.1208 11.9303 38.1253 11.9339 38.1299 11.9375ZM37.9307 11.7666C37.8961 11.7342 37.8638 11.6999 37.8311 11.666C37.8638 11.6999 37.8961 11.7342 37.9307 11.7666ZM37.7314 11.5605C37.7075 11.5331 37.6859 11.5039 37.6631 11.4756C37.6859 11.5039 37.7075 11.5331 37.7314 11.5605ZM37.5557 11.3379C37.5339 11.3075 37.5147 11.2753 37.4941 11.2441C37.5147 11.2754 37.5339 11.3075 37.5557 11.3379ZM37.4043 11.1045C37.3752 11.0548 37.3495 11.0034 37.3232 10.9521C37.3495 11.0034 37.3752 11.0548 37.4043 11.1045ZM37.2764 10.8623C37.2546 10.8165 37.2354 10.7695 37.2158 10.7227C37.2354 10.7695 37.2546 10.8164 37.2764 10.8623ZM37.1621 10.5918C37.1368 10.5231 37.1155 10.4531 37.0947 10.3828C37.1155 10.4531 37.1368 10.5231 37.1621 10.5918ZM23.376 10.1924V10.1914V10.1924ZM37.0127 10.0547C36.9586 9.77378 36.9383 9.4857 36.9531 9.2002C36.9382 9.4857 36.9586 9.77378 37.0127 10.0547ZM36.9609 9.11816C36.9662 9.04893 36.9721 8.97983 36.9814 8.91113C36.9721 8.97982 36.9662 9.04893 36.9609 9.11816ZM36.998 8.81641C37.0078 8.75697 37.0164 8.6974 37.0293 8.63867C37.0164 8.6974 37.0078 8.75698 36.998 8.81641ZM37.0742 8.46973C37.0833 8.43689 37.0905 8.4036 37.1006 8.37109C37.0905 8.4036 37.0833 8.43689 37.0742 8.46973ZM37.1582 8.20801C37.1704 8.17485 37.181 8.14111 37.1943 8.1084C37.181 8.1411 37.1704 8.17485 37.1582 8.20801ZM37.2715 7.94043C37.2865 7.90916 37.3004 7.87742 37.3164 7.84668C37.3004 7.87741 37.2865 7.90916 37.2715 7.94043ZM37.3848 7.72559C37.409 7.68396 37.4327 7.64198 37.459 7.60156C37.4326 7.64197 37.409 7.68397 37.3848 7.72559ZM37.5322 7.49902C37.5632 7.4557 37.5934 7.41175 37.627 7.37012C37.5934 7.41174 37.5632 7.45571 37.5322 7.49902ZM37.7666 7.20898C37.7759 7.1991 37.7855 7.18945 37.7949 7.17969C37.7855 7.18945 37.7759 7.1991 37.7666 7.20898ZM37.9668 7.0166C37.992 6.99472 38.0177 6.97321 38.0439 6.95215C38.0177 6.97321 37.992 6.99472 37.9668 7.0166ZM38.083 6.92188C38.1081 6.90244 38.1332 6.88292 38.1592 6.86426C38.1332 6.88292 38.1081 6.90245 38.083 6.92188ZM38.1885 6.84277C38.2176 6.82236 38.2481 6.8036 38.2783 6.78418C38.2481 6.8036 38.2176 6.82237 38.1885 6.84277ZM38.3916 6.71387C38.442 6.6848 38.4938 6.65718 38.5469 6.63086C38.4938 6.65717 38.442 6.68481 38.3916 6.71387ZM38.584 6.6123C38.6138 6.59806 38.6442 6.58464 38.6748 6.57129C38.6442 6.58464 38.6138 6.59807 38.584 6.6123ZM38.7246 6.5498C38.7534 6.53789 38.783 6.52772 38.8125 6.5166C38.783 6.52772 38.7534 6.5379 38.7246 6.5498ZM39.3555 6.36523C39.2448 6.38574 39.1381 6.41139 39.0352 6.44141C39.138 6.4114 39.2448 6.38574 39.3555 6.36523ZM42.1797 0.202148C42.3535 0.23862 42.5241 0.27871 42.6914 0.323242C42.5241 0.27871 42.3535 0.23862 42.1797 0.202148ZM73.5352 77.4951C73.5118 77.6015 73.484 77.7042 73.4531 77.8037C73.484 77.7042 73.5118 77.6015 73.5352 77.4951ZM43.3096 77.8877C43.2815 77.8027 43.2564 77.7151 43.2344 77.625C43.2564 77.7151 43.2815 77.8027 43.3096 77.8877ZM43.1963 71.5439C43.1989 71.6039 43.2006 71.6638 43.2031 71.7236C43.2006 71.6638 43.1989 71.6039 43.1963 71.5439ZM18.9561 66.1328C18.9613 66.3651 18.9638 66.599 18.9648 66.834C18.9638 66.5989 18.9613 66.3651 18.9561 66.1328ZM55.0215 66.1328C55.0267 66.3651 55.0292 66.599 55.0303 66.834C55.0292 66.5989 55.0267 66.3651 55.0215 66.1328ZM30.8115 65.8555C30.8111 66.0666 30.8107 66.2786 30.8076 66.4912C30.8107 66.2786 30.8111 66.0666 30.8115 65.8555ZM30.8008 64.752L30.7998 64.7451C30.8044 64.9234 30.8065 65.1025 30.8086 65.2822C30.8066 65.1048 30.8053 64.928 30.8008 64.752ZM30.5957 62.25C30.6029 62.2853 30.6095 62.3212 30.6162 62.3574C30.6095 62.3212 30.6029 62.2853 30.5957 62.25ZM4.03027 61.6992C3.88504 61.5729 3.73802 61.4437 3.59082 61.3086C3.73803 61.4437 3.88503 61.5729 4.03027 61.6992ZM45.2383 56.7666C45.226 56.7842 45.2123 56.8007 45.2002 56.8184C45.2123 56.8007 45.226 56.7842 45.2383 56.7666ZM79.7188 55.3789C79.701 55.4634 79.68 55.5484 79.6592 55.6348C79.68 55.5484 79.701 55.4634 79.7188 55.3789ZM50.9512 43.1748C50.9395 43.5161 50.9268 43.8573 50.915 44.1982C50.9268 43.8573 50.9395 43.5161 50.9512 43.1748ZM0.0664062 42.3076C0.0648974 42.3537 0.0620031 42.3999 0.0605469 42.4463C0.0620026 42.3999 0.0648979 42.3537 0.0664062 42.3076ZM28.9277 41.9795C28.9138 41.5644 28.8993 41.1498 28.8887 40.7363C28.8994 41.1498 28.9137 41.5644 28.9277 41.9795ZM73.4902 38.585C73.5111 38.6721 73.5295 38.761 73.5459 38.8516C73.5295 38.761 73.5111 38.6721 73.4902 38.585ZM6.55664 38.6973C6.55254 38.7169 6.54587 38.7361 6.54199 38.7559C6.54587 38.7361 6.55254 38.7169 6.55664 38.6973ZM8.4502 35.8984L8.43652 35.9082C8.412 35.9255 8.38846 35.9442 8.36426 35.9619C8.39297 35.9409 8.42103 35.9189 8.4502 35.8984ZM62.6484 33.6484C62.6261 33.6306 62.6031 33.6134 62.5811 33.5947C62.6031 33.6134 62.6261 33.6306 62.6484 33.6484ZM61.7217 32.3896C61.7391 32.4341 61.7587 32.4778 61.7783 32.5215C61.7587 32.4778 61.7391 32.4341 61.7217 32.3896ZM63.6836 18.7412C63.6461 18.7349 63.6089 18.7291 63.5723 18.7217C63.6089 18.7291 63.6461 18.7349 63.6836 18.7412ZM12.8252 16.5732C12.8106 16.5208 12.8002 16.4672 12.7881 16.4141C12.8002 16.4672 12.8106 16.5208 12.8252 16.5732ZM61.3281 16.5732C61.3135 16.5208 61.3031 16.4672 61.291 16.4141C61.3031 16.4672 61.3135 16.5208 61.3281 16.5732ZM12.7158 15.9668C12.7083 15.8878 12.7014 15.8088 12.6992 15.7295C12.7014 15.8088 12.7083 15.8878 12.7158 15.9668ZM61.2188 15.9668C61.2112 15.8878 61.2044 15.8088 61.2021 15.7295C61.2044 15.8088 61.2112 15.8878 61.2188 15.9668ZM14.3252 12.8623C14.3629 12.8442 14.4014 12.8273 14.4404 12.8105C14.4014 12.8273 14.3629 12.8442 14.3252 12.8623ZM14.7764 12.6885C14.8059 12.6798 14.8361 12.673 14.8662 12.665C14.8361 12.673 14.8059 12.6798 14.7764 12.6885ZM63.2793 12.6885C63.3088 12.6798 63.339 12.673 63.3691 12.665C63.339 12.673 63.3088 12.6798 63.2793 12.6885ZM37.0771 10.3281C37.0626 10.2756 37.0521 10.2221 37.04 10.1689C37.0521 10.2221 37.0626 10.2756 37.0771 10.3281Z" fill="white"/>
</g>
<defs>
<clipPath id="clip0_2_101">
<rect width="80" height="80" fill="white"/>
</clipPath>
</defs>
</svg>
