<svg width="80" height="80" viewBox="0 0 80 80" fill="none" xmlns="http://www.w3.org/2000/svg">
<g clip-path="url(#clip0_2_93)">
<path d="M49.8811 65.8675L51.442 70.5022C54.7776 70.5483 57.9771 72.3867 59.318 75.4891C59.7287 76.4387 60.5584 79.5181 59.2845 79.8975L21.2477 79.9981C19.6532 79.9708 19.9696 78.1283 20.1854 77.032C20.946 73.1602 24.686 70.5085 28.558 70.5022L30.1189 65.8675H8.55482C4.69541 65.8675 0.155047 60.9938 0.027238 57.1409L0 18.5538C0.354094 13.7765 3.98931 10.0159 8.73081 9.40172L44.3413 9.37866C45.9358 9.56313 45.8876 11.5755 44.3413 11.739L9.0451 11.7537C5.36169 12.1855 2.64627 15.0028 2.35504 18.711V56.5372C2.65465 60.3691 5.52512 63.1948 9.33424 63.5197L70.8166 63.5114C73.8526 63.4904 77.6408 60.061 77.6408 57.0026V20.5221L75.292 23.1152L75.2857 55.1181C74.8835 58.5475 72.3964 60.9267 68.9435 61.1678L24.4765 61.1636C22.882 60.9791 22.9302 58.9668 24.4765 58.8032L69.2326 58.7886C70.7391 58.7613 72.9349 56.749 72.9349 55.2753V24.4442C67.0159 27.599 59.1734 25.2554 55.8693 19.4719C55.5068 18.8368 54.8677 16.8412 54.6645 16.5959C54.5786 16.4911 54.4864 16.4429 54.3502 16.4408L11.0565 16.4366C9.26929 16.5917 7.82358 17.6776 7.26415 19.3881C6.79482 31.0955 7.20339 42.9097 7.05673 54.6548C7.11539 56.6735 8.59882 58.6963 10.6333 58.7655C14.2413 58.8892 20.3468 58.8724 24.7111 58.8032C26.3161 58.7781 26.2574 61.0001 24.7111 61.1636C20.8538 61.1804 14.4571 61.2621 10.1912 61.151C7.01273 61.0693 4.98664 58.8347 4.70379 54.9693L4.72683 19.8325C4.88607 17.2898 7.86758 14.0889 10.4342 14.0889H54.1134V11.7348H40.8611C40.0272 11.7348 39.4322 9.63859 41.0267 9.39124L54.4843 9.3598C54.7232 9.28014 55.2428 7.58221 55.4418 7.17973C60.7218 -3.48162 76.5282 -1.92623 79.5642 9.57152C80.4609 12.9674 79.2562 15.334 79.9958 18.5538L79.9874 56.8433C80.0063 60.8135 75.401 65.8675 71.4431 65.8675H49.879H49.8811ZM65.8467 2.36472C52.5148 3.73775 53.9542 24.4001 67.8372 23.4988C81.7097 22.5995 80.2514 0.880603 65.8467 2.36472ZM48.9403 70.5756L47.2725 65.8906L32.6227 65.9409L31.0618 70.5756H48.9403ZM57.5664 77.6357C56.9148 75.0971 55.0479 73.351 52.4519 72.9443C44.488 73.351 35.8871 72.3448 27.9964 72.9213C25.2035 73.1246 23.1167 74.9378 22.4357 77.6357H57.5664Z" fill="#285052" fill-opacity="0.4"/>
<path d="M37.1464 22.4504C47.1322 21.612 56.5272 25.731 62.243 33.965C65.0381 37.9897 67.4601 44.532 66.9866 49.4791C66.8902 50.4957 66.2344 50.5754 65.3356 50.6508C63.1712 50.8353 59.1777 50.8332 57.0133 50.6508C54.6478 50.4517 55.4356 49.1395 55.1968 47.4478C52.7265 29.9926 27.8959 29.9884 24.992 46.3767C24.8264 47.3095 24.8977 49.8962 24.246 50.3385C23.9297 50.5544 23.3744 50.6194 22.991 50.6529C21.4845 50.7787 15.0312 50.8668 13.8621 50.5188C13.2629 50.3406 13.0135 50.066 12.957 49.4183C12.7223 46.7267 13.6442 42.7334 14.5514 40.1719C17.8787 30.7808 27.1207 23.2931 37.1464 22.4525V22.4504ZM38.745 24.7584C35.3089 24.8967 31.6946 25.7604 28.7256 27.5002L32.2519 33.5331C34.2822 32.5773 36.4885 31.8855 38.745 31.8184V24.7584ZM41.098 24.7584V31.5837L41.3599 31.7933C43.6185 31.94 45.7892 32.615 47.832 33.5415L51.2766 27.5002C48.2406 25.752 44.6012 24.8506 41.1001 24.7584H41.098ZM26.5927 28.7118C23.628 30.4748 21.2813 33.0531 19.3097 35.8432C19.2678 36.08 19.5548 36.2331 19.7141 36.3442C21.3651 37.4824 23.5169 38.344 25.2036 39.4864C25.4655 39.5136 27.1333 37.2351 27.5293 36.841C27.8771 36.4951 30.0645 34.8642 30.0959 34.7007L26.5885 28.7118H26.5927ZM52.4918 36.8955C52.8773 37.2812 54.5556 39.5115 54.7945 39.4864L60.6716 35.9794C58.9095 33.0133 56.3324 30.6655 53.5436 28.693C53.3069 28.6511 53.1539 28.9382 53.0429 29.0975C51.9052 30.7494 51.044 32.9022 49.9021 34.5896C49.877 34.8286 52.1063 36.5056 52.4918 36.8934V36.8955ZM15.3769 48.2947H22.199L22.4085 48.0327C22.5552 45.7729 23.2299 43.6013 24.156 41.5575L18.1175 38.1113C16.3764 41.1235 15.444 44.8045 15.3769 48.2926V48.2947ZM64.6232 48.2947C64.5373 44.794 63.6133 41.1529 61.8826 38.1134L55.8526 41.6413C56.8122 43.6432 57.4345 45.8044 57.5916 48.0327L57.8011 48.2947H64.6232Z" fill="#83AEB1" fill-opacity="0.5"/>
<path d="M38.7283 41.373C38.9043 40.3857 38.2967 36.9123 39.4847 36.5601C42.0996 35.7866 40.7272 39.8847 41.1714 41.2389C44.1885 42.222 45.7683 45.5843 43.9538 48.4017C42.1394 51.219 38.236 51.2819 36.2413 48.6805C34.2466 46.0791 35.5666 42.2094 38.7283 41.371V41.373ZM39.3297 43.6223C37.0773 44.0897 37.1297 47.7581 39.4596 48.125C43.3693 48.7433 43.2247 42.8131 39.3297 43.6223Z" fill="#83AEB1" fill-opacity="0.5"/>
<path d="M64.7027 12.9903C63.8227 12.8582 63.234 12.0092 63.6467 11.1477L68.5538 6.17337C69.4945 5.55289 70.7726 6.03083 70.5841 7.25293C70.4437 8.16897 68.118 9.74952 67.6046 10.6383H71.133C71.5772 10.6383 71.9459 12.07 71.5332 12.4515L64.1517 19.8135C62.8548 20.2285 62.0963 19.4697 62.5111 18.1721L67.6046 12.9924C66.7037 12.898 65.5702 13.1223 64.7027 12.9924V12.9903Z" fill="#83AEB1" fill-opacity="0.5"/>
</g>
<defs>
<clipPath id="clip0_2_93">
<rect width="80" height="80" fill="white"/>
</clipPath>
</defs>
</svg>
