<svg width="120" height="21" viewBox="0 0 120 21" fill="none" xmlns="http://www.w3.org/2000/svg">
<g clip-path="url(#clip0_14_199)">
<mask id="mask0_14_199" style="mask-type:luminance" maskUnits="userSpaceOnUse" x="0" y="0" width="120" height="21">
<path d="M120 0H0V21H120V0Z" fill="white"/>
</mask>
<g mask="url(#mask0_14_199)">
<path d="M117.281 4.58915C118.036 4.58915 118.662 4.3734 119.146 3.92751C119.629 3.48162 119.872 2.94943 119.872 2.31655C119.872 1.68367 119.629 1.15148 119.146 0.70559C118.662 0.259699 118.05 0.0439453 117.281 0.0439453C116.527 0.0439453 115.9 0.259699 115.416 0.70559C114.932 1.15148 114.69 1.68367 114.69 2.31655C114.69 2.94943 114.932 3.48162 115.416 3.92751C115.9 4.3734 116.527 4.58915 117.281 4.58915ZM117.281 4.02819C116.698 4.02819 116.213 3.85559 115.858 3.52477C115.501 3.19394 115.317 2.79121 115.317 2.33093C115.317 1.87066 115.501 1.46791 115.858 1.1371C116.213 0.806272 116.698 0.633672 117.281 0.633672C117.865 0.633672 118.334 0.806272 118.705 1.1371C119.06 1.46791 119.245 1.87066 119.245 2.33093C119.245 2.79121 119.06 3.19394 118.705 3.52477C118.348 3.85559 117.879 4.02819 117.281 4.02819ZM116.896 3.36655V2.73367H117.424C117.637 2.73367 117.736 2.81997 117.736 2.99257V3.35216H118.291V2.93504C118.291 2.63299 118.093 2.47477 117.694 2.47477V2.41723C117.893 2.41723 118.064 2.37408 118.192 2.25901C118.32 2.15833 118.391 2.01449 118.391 1.84189C118.391 1.66929 118.32 1.52545 118.192 1.42477C118.064 1.32409 117.865 1.26655 117.58 1.26655H116.327V3.3234H116.896V3.36655ZM116.896 2.21586V1.79874H117.494C117.58 1.79874 117.651 1.81312 117.694 1.85627C117.736 1.89943 117.765 1.94257 117.765 2.01449C117.765 2.07202 117.736 2.12956 117.694 2.17271C117.637 2.21586 117.58 2.23024 117.494 2.23024H116.896V2.21586Z" fill="#285052"/>
<path d="M114.704 20.5968V10.5715C114.704 8.68719 114.149 7.20571 113.025 6.11256C111.9 5.03379 110.349 4.48723 108.356 4.48723C107.046 4.48723 105.865 4.7605 104.825 5.32146C103.787 5.88243 103.018 6.50091 102.534 7.20571H102.306C101.865 6.45777 101.196 5.82489 100.328 5.29269C99.4448 4.7605 98.349 4.48723 97.0388 4.48723C95.8148 4.48723 94.7475 4.7605 93.8078 5.32146C92.868 5.88243 92.2133 6.50091 91.8293 7.17694H91.6013V4.84682H86.6048V20.5968H91.6013V10.4564C91.8435 9.85231 92.2703 9.32011 92.9108 8.85984C93.537 8.39956 94.2773 8.15506 95.1315 8.15506C96.0713 8.15506 96.8115 8.44269 97.3665 9.00369C97.9073 9.57901 98.178 10.3701 98.178 11.4057V20.5968H103.175V11.1324C103.175 10.6721 103.16 10.3413 103.146 10.1543C103.402 9.69406 103.829 9.23379 104.413 8.80231C104.996 8.37076 105.737 8.15506 106.619 8.15506C107.588 8.15506 108.341 8.44269 108.897 9.00369C109.452 9.57901 109.722 10.3701 109.722 11.4057V20.5968H114.704ZM83.829 4.55915C84.384 4.07011 84.6548 3.4516 84.6548 2.67489C84.6548 1.91256 84.384 1.27969 83.829 0.790646C83.274 0.301607 82.5053 0.0427004 81.5228 0.0427004C80.5553 0.0427004 79.8008 0.287223 79.2315 0.790646C78.6615 1.27969 78.3915 1.91256 78.3915 2.67489C78.3915 3.43722 78.6758 4.07011 79.2315 4.55915C79.8008 5.04819 80.5553 5.29269 81.5228 5.29269C82.5195 5.29269 83.274 5.04819 83.829 4.55915ZM75.0608 20.8557C75.573 20.7838 76.1423 20.6543 76.7685 20.453V16.4687C76.0425 16.7132 75.3023 16.8284 74.548 16.8284C73.7651 16.8284 73.153 16.5982 72.6974 16.1523C72.242 15.7064 72.0142 15.0735 72.0142 14.2537V8.93176H76.7543V7.04749H72.0284V0.0283203L67.0319 0.618044V6.70229V14.6276C67.0319 16.6701 67.5729 18.2235 68.669 19.3023C69.7651 20.381 71.2882 20.9276 73.2384 20.9276C73.9502 20.9564 74.548 20.9276 75.0608 20.8557ZM65.6654 16.253C65.6654 15.203 65.3238 14.3831 64.6405 13.7934C63.9572 13.1893 63.1316 12.7577 62.1779 12.4845C61.2099 12.2112 59.9999 11.9666 58.548 11.7365C57.1245 11.492 56.0854 11.2619 55.4306 11.0318C54.7757 10.8016 54.4484 10.442 54.4484 9.93856C54.4484 9.50709 54.6761 9.16186 55.1316 8.88856C55.5872 8.61534 56.3416 8.48581 57.395 8.48581C58.7188 8.48581 60.0284 8.65846 61.3238 8.98929C62.6049 9.32011 63.701 9.73719 64.6121 10.2263V6.1701C63.8861 5.73858 62.8327 5.35023 61.4377 5.00502C60.0427 4.65982 58.5338 4.48723 56.8967 4.48723C54.3344 4.48723 52.4128 4.91872 51.1743 5.76735C49.9217 6.61599 49.3096 7.69479 49.3096 9.00369C49.3096 10.0824 49.6512 10.9454 50.3487 11.564C51.0462 12.1824 51.8576 12.6427 52.7828 12.9016C53.7224 13.1749 54.9466 13.4338 56.4554 13.7071C57.8363 13.9372 58.8611 14.1674 59.5302 14.4119C60.1992 14.6564 60.5267 15.0304 60.5267 15.5338C60.5267 15.9509 60.2846 16.2818 59.8007 16.5551C59.3167 16.8284 58.5195 16.9578 57.4092 16.9578C55.9857 16.9578 54.548 16.7564 53.096 16.3537C51.644 15.9509 50.4341 15.5051 49.4519 15.0016V19.1153C50.1921 19.5756 51.3024 20.0071 52.7687 20.3954C54.2348 20.7838 55.8007 20.9708 57.4376 20.9708C60.3273 20.9708 62.4199 20.5393 63.7152 19.6763C65.0106 18.8132 65.6654 17.6626 65.6654 16.253ZM47.4448 18.4393V8.93176V7.04749H42.4484H36.5693V6.63037C36.5693 4.91872 38.0071 4.05573 40.8968 4.05573C41.9359 4.05573 42.8754 4.11324 43.7295 4.21393C44.5836 4.31461 45.7935 4.5016 47.3879 4.78927V0.776261C44.8113 0.287222 42.5195 0.0427004 40.5124 0.0427004C37.4946 0.0427004 35.2598 0.574892 33.7935 1.63927C32.3273 2.70366 31.5872 4.34338 31.5872 6.54407V7.04749H29.4662V8.93176H31.5872V20.5824H36.5836V8.93176H42.4626V20.5824H45.3238C46.491 20.5968 47.4448 19.6331 47.4448 18.4393ZM27.274 4.55915C27.8434 4.07011 28.1138 3.4516 28.1138 2.67489C28.1138 1.91256 27.8291 1.27969 27.274 0.790646C26.7046 0.301607 25.9501 0.0427004 24.9821 0.0427004C23.9999 0.0427004 23.2313 0.287223 22.6761 0.790646C22.121 1.27969 21.8505 1.91256 21.8505 2.67489C21.8505 3.43722 22.121 4.07011 22.6761 4.55915C23.2313 5.04819 23.9999 5.29269 24.9821 5.29269C25.9501 5.29269 26.7046 5.04819 27.274 4.55915ZM14.7188 10.8735V10.6434C16.3131 10.6002 17.5373 10.1831 18.4056 9.36324C19.274 8.55774 19.7153 7.49338 19.7153 6.18447C19.7153 4.61667 19.1031 3.35093 17.8647 2.40162C16.6405 1.4523 14.7758 0.977629 12.2705 0.977629H0.0996094V20.5968H12.3274C15.032 20.5968 17.0249 20.1365 18.3203 19.2016C19.6156 18.2667 20.2562 17.0585 20.2562 15.5626C20.2562 14.1818 19.7864 13.0598 18.8327 12.2112C17.8932 11.3482 16.5124 10.9023 14.7188 10.8735ZM14.5337 7.14819C14.5337 7.83864 14.2633 8.38516 13.7366 8.78791C13.1957 9.19066 12.3843 9.39204 11.274 9.39204H5.12452V4.87557H11.2598C12.3843 4.87557 13.2242 5.07696 13.7509 5.49408C14.2633 5.89682 14.5337 6.4434 14.5337 7.14819ZM15.0889 14.3975C15.0889 15.0879 14.8184 15.6489 14.2775 16.066C13.7366 16.4831 12.8825 16.6989 11.7437 16.6989H5.11028V12.0818H11.7437C12.8968 12.0818 13.7366 12.2975 14.2775 12.7146C14.8042 13.1174 15.0889 13.6927 15.0889 14.3975ZM22.491 9.20506V20.5824H27.4875V7.04749H24.6263C23.4448 7.06188 22.491 8.02554 22.491 9.20506ZM81.8933 7.06188H79.032V20.5968H84.0285V9.20506C84.0285 8.02554 83.0745 7.06188 81.8933 7.06188Z" fill="url(#paint0_linear_14_199)"/>
</g>
</g>
<defs>
<linearGradient id="paint0_linear_14_199" x1="57.75" y1="20.9996" x2="57.75" y2="-0.000438689" gradientUnits="userSpaceOnUse">
<stop stop-color="#285052"/>
<stop offset="1" stop-color="#539497"/>
</linearGradient>
<clipPath id="clip0_14_199">
<rect width="120" height="21" fill="white"/>
</clipPath>
</defs>
</svg>
