<svg width="422" height="600" viewBox="0 0 422 600" fill="none" xmlns="http://www.w3.org/2000/svg">
<g clip-path="url(#clip0_2_6)">
<g opacity="0.5">
<path d="M254.297 167.871C254.176 167.258 253.959 166.68 253.697 166.129L308.175 134.639C309.778 137.201 311.951 139.305 314.503 140.804L315.408 141.326C319.006 143.186 323.247 143.893 327.519 143.041C330.396 142.466 332.949 141.253 335.133 139.595L335.947 138.96C340.892 134.741 343.478 128.068 342.113 121.25C341.619 118.751 340.636 116.474 339.29 114.492L360.464 99.152C363.523 103.039 368.601 105.131 373.788 104.105C376.931 103.475 379.585 101.81 381.498 99.5653L398.767 113.68C398.04 114.669 397.701 115.95 397.97 117.261C398.459 119.745 400.87 121.364 403.362 120.87C405.859 120.376 407.472 117.961 406.975 115.469C406.482 112.993 404.068 111.369 401.573 111.858C400.575 112.055 399.733 112.582 399.092 113.271L381.83 99.1651C384.181 96.1536 385.288 92.1804 384.48 88.1407C383.81 84.747 381.908 81.9191 379.352 79.9777L400.792 50.6102C401.801 51.2667 403.036 51.537 404.314 51.3007C406.916 50.7699 408.592 48.2578 408.084 45.6756C407.566 43.0762 405.048 41.4088 402.461 41.9114C399.861 42.4272 398.173 44.9487 398.679 47.5347C398.923 48.6691 399.542 49.613 400.379 50.2885L378.947 79.6802C376.01 77.6216 372.291 76.7201 368.504 77.4713C361.148 78.9274 356.358 86.0598 357.822 93.4142C358.181 95.2297 358.888 96.8813 359.849 98.3312L338.672 113.663C334.726 108.472 328.189 105.588 321.379 106.524L320.356 106.685C320.341 106.683 320.305 106.696 320.305 106.696C313.547 108.028 308.396 112.877 306.345 118.951L306.039 119.946C305.294 122.639 305.127 125.533 305.707 128.476C306.085 130.367 306.746 132.146 307.64 133.772L253.185 165.235C251.61 162.916 248.751 161.627 245.81 162.217C241.917 162.989 239.377 166.784 240.141 170.678C240.926 174.573 244.713 177.118 248.631 176.334C252.53 175.561 255.072 171.775 254.297 167.871Z" fill="#285052"/>
<path d="M17.1266 288.76C8.44338 288.021 0.809555 294.472 0.0556515 303.148C-0.671748 311.832 5.75357 319.461 14.4444 320.214C23.1276 320.952 30.7691 314.501 31.5002 305.817C32.0988 298.92 28.1436 292.685 22.1388 290.035L39.3689 247.046C41.1268 247.687 42.9793 248.152 44.9343 248.303C51.0906 248.837 56.8567 246.627 61.0392 242.694L107.263 289.414C105.509 291.281 104.349 293.738 104.111 296.49C103.558 303.057 108.418 308.823 114.984 309.372C121.534 309.929 127.319 305.056 127.872 298.508C128.429 291.947 123.568 286.178 117.007 285.621C113.574 285.33 110.362 286.538 107.998 288.677L61.7969 241.978C65.0246 238.624 67.1917 234.179 67.6122 229.183C67.6728 228.581 67.6766 227.998 67.6766 227.397L78.8982 227.097C79.224 230.784 82.1639 233.821 85.9941 234.142C90.2826 234.513 94.0597 231.325 94.4197 227.033C94.7985 222.74 91.6086 218.962 87.3162 218.603C83.0277 218.231 79.2543 221.422 78.883 225.719C78.8641 225.828 78.8678 225.943 78.8641 226.056L67.6501 226.355C67.4341 222.13 65.9718 218.201 63.585 214.968L169.526 132.175C172.217 135.32 176.096 137.455 180.547 137.833C181.608 137.914 182.665 137.909 183.699 137.793L187.961 167.63C182.62 168.629 178.361 173.077 177.877 178.771C177.597 182.007 178.596 185.044 180.429 187.405L158.896 204.834C157.85 203.627 156.324 202.798 154.6 202.65C151.047 202.355 147.913 204.982 147.607 208.544C147.304 212.106 149.948 215.237 153.49 215.536C157.059 215.831 160.189 213.2 160.491 209.649C160.623 207.995 160.132 206.462 159.222 205.231L180.752 187.826C182.798 190.241 185.764 191.899 189.189 192.186C191.122 192.357 192.996 192.043 194.69 191.384L213.587 237.598C212.09 238.313 210.985 239.752 210.844 241.52C210.616 244.158 212.58 246.49 215.227 246.721C217.872 246.948 220.198 244.976 220.437 242.322C220.652 239.676 218.694 237.36 216.045 237.128C215.348 237.068 214.671 237.167 214.06 237.386L195.172 191.198C199.221 189.443 202.199 185.577 202.604 180.871C203.18 174.028 198.127 168.035 191.295 167.441C190.523 167.387 189.761 167.395 188.995 167.471L184.723 137.63C187.712 137.118 190.443 135.797 192.659 133.859L193.417 133.155C196.088 130.512 197.873 126.966 198.216 122.93C198.331 121.678 198.27 120.463 198.112 119.27L210.306 117.051C210.923 119.224 212.802 120.905 215.19 121.106C218.246 121.37 220.944 119.099 221.217 116.025C221.471 112.948 219.209 110.264 216.136 109.991C213.06 109.738 210.374 112.009 210.109 115.09C210.067 115.408 210.091 115.711 210.116 116.044L197.928 118.244C197.027 113.837 194.318 110.014 190.553 107.659L213.595 67.5251C214.765 68.1194 216.065 68.5017 217.455 68.619C223.207 69.1226 228.26 64.86 228.749 59.1022C229.237 53.3444 224.975 48.2945 219.228 47.8062C213.477 47.3102 208.416 51.5842 207.931 57.3305C207.582 61.3395 209.537 64.9925 212.704 67.0102L189.674 107.141C187.757 106.126 185.628 105.468 183.324 105.263C177.425 104.767 172.02 107.478 168.758 111.933L146.834 96.7192C147.671 95.3715 148.213 93.8157 148.364 92.1273C148.849 86.4301 144.625 81.4179 138.916 80.9372C133.225 80.4375 128.205 84.6735 127.717 90.3783C127.232 96.0794 131.46 101.091 137.165 101.572C140.799 101.883 144.167 100.259 146.239 97.5671L168.171 112.77C166.795 114.931 165.897 117.449 165.658 120.163C165.31 124.335 166.541 128.264 168.886 131.36L62.96 214.131C59.4972 209.888 54.3941 207.007 48.5105 206.504C46.9346 206.356 45.3812 206.42 43.8659 206.628L34.4704 148.142C38.9863 147.192 42.5588 143.38 42.9832 138.523C43.2066 135.918 42.4793 133.45 41.0927 131.459L58.4441 118.758C59.6147 120.254 61.3801 121.269 63.4108 121.454C67.3394 121.772 70.7907 118.864 71.1393 114.935C71.4651 111.017 68.5593 107.568 64.6383 107.235C60.7209 106.898 57.2506 109.81 56.9249 113.743C56.7847 115.423 57.2506 117.033 58.1258 118.339L40.7668 131.057C38.9939 128.745 36.3003 127.159 33.1747 126.887C27.9049 126.451 23.2072 129.873 21.8699 134.783L11.6219 132.262C11.6446 132.08 11.7015 131.891 11.7204 131.712C11.9629 128.812 9.81865 126.281 6.95075 126.042C4.06392 125.8 1.52561 127.935 1.28314 130.812C1.0331 133.696 3.16221 136.24 6.05664 136.482C8.56841 136.706 10.8188 135.097 11.5197 132.769L21.7525 135.302C21.6501 135.751 21.5706 136.221 21.5252 136.699C21.0136 142.635 25.4121 147.835 31.3335 148.339C32.0495 148.403 32.7542 148.384 33.4513 148.312L42.8468 206.798C36.2055 208.044 30.5948 212.44 27.7534 218.492L27.3102 219.428C26.5183 221.358 26.0069 223.44 25.8174 225.621C25.0332 234.857 30.3599 243.174 38.4142 246.654L21.1728 289.657C19.896 289.195 18.5548 288.874 17.1266 288.76Z" fill="#285052"/>
<path d="M218.49 371.784C218.906 371.997 219.334 372.178 219.77 372.34C224.017 373.897 228.514 373.303 232.091 371.106L239.732 381.964C238.292 383.205 237.708 385.257 238.379 387.15C239.269 389.637 242.009 390.939 244.498 390.038C246.975 389.141 248.268 386.397 247.374 383.917C246.483 381.43 243.747 380.139 241.255 381.033C241.016 381.131 240.778 381.245 240.569 381.366L232.95 370.546C235.162 368.945 236.939 366.704 237.959 363.96C238.739 361.828 238.974 359.637 238.739 357.521L276.598 352.134C277.059 354.31 278.59 356.218 280.844 357.051C284.322 358.337 288.21 356.54 289.49 353.057C290.789 349.555 289.005 345.686 285.512 344.395C282.018 343.113 278.15 344.903 276.844 348.389C276.518 349.317 276.401 350.286 276.465 351.21L238.614 356.604C237.757 351.807 234.477 347.576 229.582 345.77C227.854 345.138 226.066 344.87 224.316 344.91L223.21 325.646C226.854 325.256 230.136 322.875 231.491 319.211C233.386 314.066 230.776 308.35 225.627 306.435C220.464 304.545 214.754 307.184 212.852 312.332C210.946 317.469 213.576 323.197 218.728 325.089C219.891 325.525 221.112 325.729 222.267 325.714L223.4 344.976C218.13 345.464 213.344 348.87 211.394 354.162C208.946 360.761 211.753 367.984 217.675 371.357L218.49 371.784Z" fill="#285052"/>
<path d="M135.158 386.654C131.664 385.367 127.944 386.117 125.213 388.282L106.823 367.336C108.365 365.882 109.615 364.054 110.407 361.927C111.707 358.414 111.521 354.727 110.183 351.536L109.752 350.6C108.195 347.497 105.501 344.952 101.989 343.651C95.8517 341.398 89.1801 343.631 85.5279 348.67L84.9521 349.515C84.4558 350.306 84.0353 351.179 83.6829 352.081C81.8682 356.998 82.9442 362.26 86.0545 366.042L86.7326 366.784C88.1875 368.313 89.9946 369.558 92.1123 370.342C97.0185 372.155 102.266 371.088 106.039 368.018L124.432 388.963C123.356 390.005 122.488 391.254 121.928 392.757C120.439 396.765 121.621 401.108 124.583 403.848L84.2285 451.826C83.4404 451.235 82.5843 450.701 81.6068 450.343C76.265 448.37 70.3436 451.099 68.385 456.437C66.396 461.755 69.1351 467.668 74.4655 469.63C79.7997 471.598 85.7211 468.868 87.7064 463.546C89.1838 459.541 88.0018 455.188 85.043 452.447L125.402 404.465C126.174 405.059 127.042 405.597 128.016 405.95C133.346 407.914 139.268 405.192 141.238 399.866C143.231 394.543 140.499 388.626 135.158 386.654Z" fill="#285052"/>
<path d="M281.648 472.68C285.558 471.283 287.947 467.528 287.816 463.591L304.345 461.619C304.507 462.513 304.719 463.395 305.027 464.27C307.936 472.343 316.831 476.537 324.905 473.627C327.716 472.616 330.046 470.864 331.781 468.676L332.686 467.41C335.213 463.494 335.963 458.485 334.259 453.753C331.447 445.92 323.014 441.771 315.145 444.176L310.118 430.195C312.532 428.92 313.721 426.047 312.763 423.396C311.732 420.511 308.534 418.998 305.64 420.038C302.742 421.072 301.25 424.283 302.287 427.171C303.238 429.817 305.97 431.274 308.652 430.729L313.675 444.698C307.44 447.31 303.715 453.571 304.163 460.086L287.614 462.051C287.531 461.623 287.413 461.188 287.265 460.767C285.523 455.929 280.196 453.404 275.347 455.15C270.505 456.895 268.001 462.237 269.733 467.074C271.467 471.919 276.806 474.425 281.648 472.68Z" fill="#285052"/>
</g>
<path opacity="0.1" d="M304.579 360.23C302.762 360.391 301.133 359.494 300.219 358.058L252.746 385.312C253.189 386.165 253.481 387.086 253.559 388.11C253.725 390.051 253.127 391.879 252.023 393.305L265.045 404.41C265.916 403.474 267.092 402.842 268.443 402.714C271.355 402.474 273.907 404.635 274.154 407.562C274.403 410.503 272.254 413.066 269.353 413.315C266.441 413.57 263.884 411.394 263.636 408.473C263.524 407.111 263.936 405.827 264.705 404.822L251.673 393.727C250.463 395.064 248.795 395.981 246.865 396.137C245.524 396.255 244.255 396.01 243.131 395.457L221.987 437.094C225.477 439.001 227.966 442.577 228.325 446.871C228.71 451.361 226.634 455.486 223.24 457.927L222.322 458.525C220.805 459.412 219.095 460.005 217.238 460.148C210.524 460.736 204.623 455.712 204.05 448.949C203.481 442.181 208.459 436.231 215.162 435.654C217.433 435.461 219.595 435.918 221.501 436.844L242.641 395.211C240.599 394.05 239.117 391.908 238.913 389.365C238.563 385.278 241.562 381.68 245.611 381.327C248.474 381.087 251.079 382.529 252.495 384.837L299.942 357.588C299.695 357.069 299.514 356.49 299.461 355.872C299.242 353.24 301.177 350.937 303.788 350.697C306.388 350.472 308.687 352.427 308.906 355.064C309.124 357.696 307.18 360.009 304.579 360.23Z" fill="#285052"/>
<path opacity="0.1" d="M367.437 448.24C366.818 448.015 366.248 447.692 365.721 447.33L323.827 499.265C326.245 501.367 328.091 503.985 329.242 506.917L329.632 507.948C330.987 512.018 331.036 516.587 329.442 520.921C328.37 523.848 326.678 526.32 324.582 528.338L323.778 529.081C318.558 533.571 311.153 535.184 304.241 532.629C301.707 531.71 299.484 530.293 297.631 528.558L278.099 548.244C281.663 552.094 283.013 557.762 281.087 563.034C279.913 566.221 277.739 568.732 275.073 570.369L287.006 590.803C288.161 590.191 289.554 590.055 290.885 590.549C293.415 591.472 294.706 594.271 293.781 596.803C292.854 599.329 290.061 600.634 287.531 599.696C285.017 598.772 283.715 595.977 284.646 593.441C285.017 592.43 285.703 591.634 286.532 591.071L274.609 570.648C271.071 572.626 266.738 573.125 262.633 571.615C259.197 570.345 256.54 567.891 254.931 564.902L220.679 582.53C221.2 583.693 221.289 585.042 220.82 586.338C219.846 588.986 216.945 590.324 214.322 589.371C211.69 588.389 210.351 585.482 211.31 582.853C212.275 580.214 215.186 578.861 217.813 579.819C218.959 580.258 219.85 581.055 220.411 582.042L254.683 564.408C253.016 560.998 252.689 556.947 254.093 553.101C256.828 545.625 265.08 541.785 272.533 544.526C274.376 545.205 275.985 546.217 277.344 547.473L296.856 527.786C292.074 522.797 290.134 515.463 292.23 508.485L292.561 507.44C292.561 507.416 292.577 507.386 292.577 507.386C295.086 500.517 301.004 495.913 307.696 494.765L308.784 494.613C311.733 494.277 314.784 494.575 317.767 495.673C319.688 496.383 321.438 497.359 322.993 498.566L364.863 446.641C362.7 444.614 361.817 441.403 362.914 438.414C364.357 434.45 368.753 432.418 372.702 433.864C376.655 435.32 378.693 439.713 377.225 443.695C375.777 447.658 371.395 449.695 367.437 448.24Z" fill="#285052"/>
<g opacity="0.3">
<path d="M259.291 31.4108C252.969 26.8103 251.585 17.9633 256.175 11.6353C260.78 5.32085 269.616 3.92583 275.95 8.51375C282.271 13.1141 283.664 21.9634 279.056 28.281C275.406 33.3102 269.059 35.212 263.438 33.484L249.853 72.7396C251.421 73.3384 252.948 74.1097 254.361 75.1526C258.848 78.4039 261.46 83.287 261.983 88.4071L320.767 83.8699C320.675 81.5741 321.33 79.2309 322.787 77.2223C326.272 72.4447 332.952 71.388 337.725 74.8704C342.493 78.3329 343.556 85.0291 340.078 89.7974C336.603 94.5742 329.914 95.6286 325.139 92.1551C322.645 90.3383 321.175 87.635 320.83 84.7985L262.076 89.3395C262.293 93.5074 261.152 97.7868 258.503 101.422C258.186 101.863 257.849 102.265 257.497 102.67L264.927 109.459C267.315 107.152 271.093 106.821 273.876 108.848C277.001 111.117 277.69 115.491 275.411 118.611C273.139 121.744 268.759 122.434 265.642 120.155C262.514 117.889 261.835 113.512 264.113 110.386C264.159 110.3 264.23 110.225 264.294 110.144L256.87 103.356C254.242 106.097 250.937 107.899 247.424 108.688L270.586 226.986C274.252 226.432 278.138 227.263 281.38 229.617C282.147 230.182 282.861 230.807 283.491 231.494L303.91 213.775C300.873 209.96 300.606 204.445 303.623 200.303C305.336 197.943 307.797 196.471 310.432 195.946L306.076 171.5C304.65 171.701 303.137 171.368 301.877 170.457C299.295 168.571 298.715 164.952 300.599 162.358C302.483 159.769 306.113 159.199 308.688 161.074C311.281 162.969 311.853 166.588 309.978 169.173C309.098 170.371 307.867 171.123 306.521 171.422L310.892 195.857C313.693 195.418 316.682 196.035 319.168 197.85C320.579 198.869 321.669 200.177 322.428 201.622L362.391 181.389C361.799 180.03 361.899 178.407 362.837 177.124C364.235 175.195 366.938 174.768 368.863 176.167C370.792 177.565 371.214 180.267 369.811 182.207C368.41 184.127 365.717 184.547 363.787 183.149C363.284 182.784 362.876 182.316 362.59 181.807L322.647 202.024C324.361 205.594 324.103 209.962 321.618 213.384C317.988 218.359 311.039 219.456 306.058 215.853C305.501 215.431 304.992 214.978 304.517 214.481L284.089 232.197C285.811 234.294 286.883 236.795 287.253 239.413L287.353 240.33C287.612 243.687 286.737 247.141 284.595 250.079C283.938 250.995 283.184 251.782 282.374 252.495L289.336 261.155C291.033 260.041 293.292 260.006 295.029 261.275C297.261 262.885 297.751 266.012 296.136 268.255C294.499 270.489 291.388 270.983 289.14 269.365C286.906 267.732 286.419 264.613 288.046 262.37C288.205 262.13 288.403 261.941 288.617 261.733L281.652 253.088C278.448 255.544 274.366 256.546 270.429 255.932L262.461 296.656C263.608 296.939 264.711 297.446 265.722 298.181C269.913 301.214 270.837 307.068 267.785 311.257C264.737 315.447 258.882 316.371 254.7 313.329C250.507 310.289 249.591 304.424 252.631 300.244C254.755 297.326 258.224 295.996 261.556 296.484L269.527 255.769C267.628 255.337 265.799 254.522 264.117 253.312C259.833 250.186 257.756 245.177 258.166 240.248L234.363 237.686C234.135 239.096 233.596 240.468 232.704 241.699C229.685 245.844 223.878 246.762 219.724 243.739C215.572 240.737 214.658 234.924 217.682 230.767C220.704 226.619 226.513 225.704 230.66 228.721C233.308 230.648 234.637 233.72 234.463 236.764L258.264 239.334C258.599 237.057 259.475 234.831 260.908 232.844C263.119 229.813 266.268 227.871 269.676 227.147L246.512 108.876C241.67 109.722 236.519 108.68 232.233 105.564C231.078 104.734 230.065 103.779 229.162 102.753L188.423 136.884C190.927 140.177 191.111 144.856 188.543 148.398C187.161 150.296 185.221 151.544 183.107 152.078L187.407 170.868C189.075 170.543 190.877 170.892 192.361 171.959C195.21 174.055 195.836 178.047 193.77 180.91C191.686 183.762 187.692 184.398 184.835 182.317C181.981 180.245 181.342 176.236 183.43 173.381C184.323 172.156 185.587 171.34 186.945 170.971L182.654 152.16C180.093 152.682 177.331 152.181 175.058 150.529C171.227 147.732 170.059 142.658 172.037 138.541L163.612 134.237C163.523 134.378 163.452 134.535 163.356 134.664C161.818 136.772 158.874 137.231 156.792 135.713C154.696 134.187 154.229 131.245 155.751 129.149C157.277 127.049 160.214 126.572 162.315 128.108C164.151 129.43 164.726 131.843 163.841 133.834L172.266 138.126C172.462 137.761 172.682 137.394 172.935 137.046C176.075 132.722 182.114 131.776 186.419 134.909C186.944 135.287 187.411 135.713 187.839 136.171L228.576 102.043C224.811 97.2976 223.588 91.0251 225.214 85.26L225.463 84.3675C226.063 82.5928 226.94 80.8801 228.097 79.2938C232.992 72.5695 241.488 70.0551 248.985 72.43L262.569 33.1628C261.429 32.7382 260.329 32.1673 259.291 31.4108Z" fill="#285052"/>
<path d="M217.014 245.617C211.789 241.093 211.224 233.167 215.752 227.944C220.275 222.726 228.202 222.16 233.427 226.684C238.652 231.207 239.223 239.132 234.7 244.349C230.172 249.573 222.239 250.141 217.014 245.617ZM232.867 227.329C228.001 223.116 220.607 223.647 216.399 228.503C212.181 233.369 212.71 240.755 217.576 244.968C222.445 249.184 229.836 248.649 234.05 243.788C238.263 238.929 237.736 231.545 232.867 227.329Z" fill="#285052"/>
<path d="M172.44 152.29C167.162 147.721 166.585 139.715 171.156 134.441C175.726 129.17 183.74 128.598 189.018 133.167C194.289 137.732 194.867 145.744 190.298 151.015C185.727 156.288 177.715 156.857 172.44 152.29ZM188.558 133.697C183.574 129.382 176.011 129.925 171.693 134.906C167.379 139.883 167.927 147.438 172.908 151.751C177.886 156.062 185.455 155.529 189.767 150.556C194.085 145.575 193.536 138.008 188.558 133.697Z" fill="#285052"/>
<path d="M322.602 93.6204C317.012 88.7805 316.397 80.294 321.242 74.7055C326.084 69.12 334.58 68.5158 340.169 73.3558C345.763 78.1984 346.371 86.6854 341.529 92.2708C336.684 97.8593 328.195 98.463 322.602 93.6204ZM339.612 73.9982C334.376 69.4636 326.425 70.0376 321.892 75.2675C317.355 80.5005 317.925 88.4403 323.161 92.9748C328.395 97.5068 336.34 96.939 340.877 91.706C345.411 86.4761 344.846 78.5301 339.612 73.9982Z" fill="#285052"/>
<path d="M299.798 172.086C296.331 169.083 295.953 163.815 298.957 160.35C301.957 156.889 307.223 156.513 310.693 159.517C314.155 162.515 314.535 167.774 311.532 171.239C308.527 174.704 303.263 175.086 299.798 172.086ZM310.337 159.93C307.09 157.118 302.166 157.468 299.36 160.706C296.548 163.948 296.901 168.873 300.147 171.684C303.387 174.488 308.311 174.134 311.122 170.89C313.93 167.653 313.576 162.734 310.337 159.93Z" fill="#285052"/>
</g>
<path opacity="0.3" d="M347.517 422.082C344.543 422.344 341.879 420.89 340.385 418.562L262.742 462.74C263.466 464.123 263.942 465.616 264.069 467.277C264.34 470.422 263.362 473.386 261.557 475.697L282.857 493.699C284.28 492.182 286.203 491.156 288.414 490.95C293.176 490.561 297.35 494.064 297.755 498.807C298.16 503.574 294.647 507.728 289.9 508.134C285.138 508.546 280.956 505.019 280.551 500.285C280.368 498.076 281.044 495.995 282.299 494.366L260.985 476.38C259.005 478.55 256.279 480.035 253.122 480.289C250.928 480.48 248.853 480.083 247.016 479.184L212.432 546.678C218.14 549.769 222.211 555.567 222.8 562.527C223.427 569.804 220.032 576.493 214.483 580.449L212.981 581.419C210.5 582.856 207.701 583.817 204.664 584.048C193.685 585.001 184.033 576.859 183.094 565.896C182.164 554.924 190.306 545.28 201.27 544.343C204.982 544.033 208.52 544.772 211.637 546.274L246.213 478.787C242.874 476.904 240.449 473.433 240.115 469.311C239.542 462.685 244.448 456.854 251.07 456.282C255.753 455.893 260.015 458.228 262.329 461.97L339.933 417.8C339.527 416.958 339.232 416.02 339.145 415.019C338.787 410.754 341.952 407.02 346.221 406.631C350.475 406.265 354.235 409.435 354.593 413.709C354.951 417.975 351.771 421.724 347.517 422.082Z" fill="#285052"/>
<path opacity="0.3" d="M252.122 451.372C261.439 451.372 269.017 458.943 269.017 468.246C269.017 477.572 261.439 485.136 252.122 485.136C242.812 485.136 235.228 477.572 235.228 468.246C235.228 458.943 242.812 451.372 252.122 451.372ZM252.122 484.11C260.875 484.11 267.983 477 267.983 468.246C267.983 459.515 260.875 452.406 252.122 452.406C243.368 452.406 236.261 459.523 236.261 468.246C236.261 476.993 243.368 484.11 252.122 484.11Z" fill="#285052"/>
</g>
<defs>
<clipPath id="clip0_2_6">
<rect width="422" height="600" fill="white"/>
</clipPath>
</defs>
</svg>
