<svg width="422" height="600" viewBox="0 0 422 600" fill="none" xmlns="http://www.w3.org/2000/svg">
<g clip-path="url(#clip0_2_23)">
<g opacity="0.5">
<path d="M167.703 167.871C167.824 167.258 168.041 166.68 168.303 166.129L113.825 134.639C112.222 137.201 110.049 139.305 107.497 140.804L106.592 141.326C102.994 143.186 98.7526 143.893 94.4814 143.041C91.6043 142.466 89.0513 141.253 86.8667 139.595L86.053 138.96C81.1079 134.741 78.5223 128.068 79.8874 121.25C80.3805 118.751 81.3644 116.474 82.7097 114.492L61.5362 99.152C58.4773 103.039 53.3993 105.131 48.2117 104.105C45.0689 103.475 42.4145 101.81 40.5015 99.5653L23.2333 113.68C23.9595 114.669 24.2988 115.95 24.0295 117.261C23.5411 119.745 21.1303 121.364 18.6379 120.87C16.1409 120.376 14.5275 117.961 15.0253 115.469C15.5184 112.993 17.9315 111.369 20.4274 111.858C21.4252 112.055 22.2669 112.582 22.9081 113.271L40.1704 99.1651C37.8191 96.1536 36.7116 92.1804 37.5195 88.1407C38.1898 84.747 40.0923 81.9191 42.6476 79.9777L21.2084 50.6102C20.1989 51.2667 18.9643 51.537 17.6855 51.3007C15.0836 50.7699 13.4084 48.2578 13.9155 45.6756C14.4343 43.0762 16.9522 41.4088 19.539 41.9114C22.1386 42.4272 23.8267 44.9487 23.3207 47.5347C23.0771 48.6691 22.4581 49.613 21.6211 50.2885L43.0533 79.6802C45.9898 77.6216 49.7086 76.7201 53.4961 77.4713C60.8519 78.9274 65.642 86.0598 64.1778 93.4142C63.8187 95.2297 63.1123 96.8813 62.1505 98.3312L83.3275 113.663C87.2736 108.472 93.811 105.588 100.621 106.524L101.644 106.685C101.659 106.683 101.695 106.696 101.695 106.696C108.453 108.028 113.604 112.877 115.655 118.951L115.961 119.946C116.706 122.639 116.873 125.533 116.292 128.476C115.915 130.367 115.254 132.146 114.36 133.772L168.815 165.235C170.39 162.916 173.248 161.627 176.19 162.217C180.083 162.989 182.623 166.784 181.859 170.678C181.074 174.573 177.287 177.118 173.369 176.334C169.47 175.561 166.928 171.775 167.703 167.871Z" fill="#285052"/>
<path d="M404.873 288.76C413.557 288.021 421.19 294.472 421.944 303.148C422.672 311.832 416.246 319.461 407.556 320.214C398.872 320.952 391.231 314.501 390.5 305.817C389.901 298.92 393.856 292.685 399.861 290.035L382.631 247.046C380.873 247.687 379.021 248.152 377.066 248.303C370.909 248.837 365.143 246.627 360.961 242.694L314.737 289.414C316.491 291.281 317.651 293.738 317.889 296.49C318.442 303.057 313.582 308.823 307.016 309.372C300.466 309.929 294.681 305.056 294.128 298.508C293.571 291.947 298.432 286.178 304.993 285.621C308.426 285.33 311.638 286.538 314.002 288.677L360.203 241.978C356.975 238.624 354.808 234.179 354.388 229.182C354.327 228.581 354.323 227.998 354.323 227.396L343.102 227.097C342.776 230.784 339.836 233.821 336.006 234.142C331.717 234.513 327.94 231.325 327.58 227.033C327.202 222.74 330.391 218.962 334.684 218.603C338.972 218.231 342.746 221.422 343.117 225.719C343.136 225.828 343.132 225.943 343.136 226.056L354.35 226.355C354.566 222.13 356.028 218.201 358.415 214.968L252.474 132.175C249.783 135.32 245.904 137.455 241.453 137.833C240.392 137.914 239.335 137.909 238.301 137.793L234.039 167.63C239.38 168.629 243.639 173.077 244.123 178.771C244.403 182.007 243.404 185.043 241.571 187.405L263.104 204.834C264.15 203.627 265.676 202.798 267.4 202.65C270.953 202.355 274.087 204.982 274.393 208.544C274.696 212.106 272.052 215.237 268.51 215.536C264.941 215.831 261.811 213.2 261.509 209.649C261.377 207.995 261.868 206.462 262.778 205.231L241.248 187.826C239.202 190.241 236.236 191.899 232.811 192.186C230.878 192.356 229.004 192.043 227.31 191.384L208.413 237.598C209.91 238.313 211.015 239.752 211.156 241.52C211.384 244.158 209.42 246.49 206.773 246.721C204.128 246.948 201.802 244.976 201.563 242.322C201.348 239.676 203.306 237.36 205.955 237.128C206.652 237.068 207.329 237.167 207.94 237.386L226.828 191.198C222.779 189.443 219.801 185.577 219.396 180.871C218.82 174.028 223.873 168.035 230.705 167.441C231.477 167.387 232.239 167.395 233.005 167.471L237.277 137.63C234.288 137.118 231.557 135.797 229.341 133.859L228.583 133.155C225.912 130.512 224.127 126.966 223.784 122.93C223.669 121.678 223.73 120.463 223.888 119.27L211.694 117.051C211.077 119.224 209.198 120.905 206.81 121.106C203.754 121.37 201.056 119.099 200.783 116.025C200.529 112.948 202.791 110.264 205.864 109.991C208.94 109.738 211.626 112.009 211.891 115.09C211.933 115.408 211.909 115.711 211.884 116.044L224.072 118.244C224.973 113.837 227.682 110.014 231.447 107.659L208.405 67.525C207.235 68.1193 205.935 68.5017 204.545 68.619C198.793 69.1225 193.74 64.86 193.251 59.1022C192.763 53.3444 197.025 48.2945 202.772 47.8061C208.523 47.3102 213.584 51.5841 214.069 57.3305C214.418 61.3394 212.463 64.9925 209.296 67.0102L232.326 107.141C234.243 106.126 236.372 105.468 238.676 105.263C244.575 104.767 249.98 107.478 253.242 111.933L275.166 96.7192C274.329 95.3714 273.787 93.8156 273.636 92.1272C273.151 86.43 277.375 81.4179 283.084 80.9372C288.775 80.4375 293.795 84.6735 294.283 90.3783C294.768 96.0793 290.54 101.091 284.835 101.572C281.201 101.883 277.833 100.259 275.761 97.5671L253.829 112.77C255.205 114.931 256.103 117.449 256.342 120.163C256.69 124.335 255.459 128.264 253.114 131.36L359.04 214.131C362.503 209.888 367.606 207.007 373.489 206.504C375.065 206.356 376.619 206.42 378.134 206.628L387.53 148.142C383.014 147.192 379.441 143.38 379.017 138.523C378.793 135.918 379.521 133.45 380.907 131.459L363.556 118.758C362.385 120.254 360.62 121.269 358.589 121.454C354.661 121.772 351.209 118.864 350.861 114.935C350.535 111.017 353.441 107.568 357.362 107.235C361.279 106.898 364.749 109.81 365.075 113.743C365.215 115.423 364.749 117.033 363.874 118.339L381.233 131.057C383.006 128.745 385.7 127.159 388.825 126.887C394.095 126.451 398.793 129.873 400.13 134.783L410.378 132.262C410.355 132.08 410.298 131.89 410.28 131.712C410.037 128.812 412.181 126.281 415.049 126.042C417.936 125.8 420.474 127.935 420.717 130.812C420.967 133.696 418.838 136.24 415.943 136.482C413.432 136.706 411.181 135.097 410.48 132.769L400.248 135.302C400.35 135.751 400.429 136.221 400.475 136.699C400.986 142.635 396.588 147.835 390.666 148.339C389.95 148.403 389.246 148.384 388.549 148.312L379.153 206.798C385.794 208.044 391.405 212.44 394.247 218.492L394.69 219.428C395.482 221.358 395.993 223.44 396.183 225.621C396.967 234.857 391.64 243.174 383.586 246.654L400.827 289.657C402.104 289.195 403.445 288.874 404.873 288.76Z" fill="#285052"/>
<path d="M203.51 371.784C203.094 371.997 202.666 372.178 202.23 372.34C197.983 373.897 193.486 373.303 189.909 371.106L182.268 381.964C183.708 383.205 184.292 385.257 183.621 387.15C182.731 389.637 179.991 390.939 177.502 390.038C175.025 389.141 173.732 386.397 174.626 383.917C175.517 381.43 178.253 380.139 180.745 381.033C180.984 381.131 181.222 381.245 181.431 381.366L189.05 370.546C186.838 368.945 185.061 366.704 184.041 363.96C183.261 361.828 183.026 359.637 183.261 357.521L145.402 352.134C144.941 354.31 143.41 356.218 141.156 357.051C137.678 358.337 133.79 356.54 132.51 353.057C131.211 349.555 132.995 345.686 136.488 344.395C139.982 343.113 143.85 344.903 145.156 348.389C145.482 349.317 145.599 350.286 145.535 351.21L183.386 356.604C184.243 351.807 187.523 347.576 192.418 345.77C194.146 345.138 195.934 344.87 197.684 344.91L198.79 325.646C195.146 325.256 191.864 322.875 190.509 319.211C188.614 314.066 191.224 308.35 196.373 306.435C201.536 304.545 207.246 307.184 209.148 312.332C211.054 317.469 208.424 323.197 203.272 325.089C202.109 325.525 200.888 325.729 199.733 325.714L198.6 344.976C203.87 345.464 208.656 348.87 210.606 354.162C213.054 360.761 210.247 367.984 204.325 371.357L203.51 371.784Z" fill="#285052"/>
<path d="M286.842 386.654C290.336 385.367 294.056 386.117 296.787 388.282L315.177 367.336C313.635 365.882 312.385 364.054 311.593 361.927C310.293 358.414 310.479 354.727 311.816 351.536L312.248 350.6C313.805 347.497 316.499 344.952 320.011 343.651C326.148 341.398 332.82 343.631 336.472 348.67L337.048 349.515C337.544 350.306 337.965 351.179 338.317 352.081C340.132 356.998 339.056 362.26 335.945 366.042L335.267 366.784C333.812 368.313 332.005 369.558 329.888 370.342C324.981 372.155 319.734 371.088 315.961 368.018L297.568 388.963C298.644 390.005 299.512 391.254 300.072 392.757C301.561 396.765 300.379 401.108 297.417 403.848L337.771 451.826C338.559 451.235 339.416 450.701 340.393 450.343C345.735 448.37 351.656 451.099 353.615 456.437C355.604 461.755 352.865 467.668 347.534 469.63C342.2 471.598 336.279 468.868 334.294 463.546C332.816 459.541 333.998 455.188 336.957 452.447L296.598 404.465C295.825 405.059 294.958 405.597 293.984 405.95C288.654 407.914 282.732 405.192 280.762 399.866C278.769 394.543 281.501 388.626 286.842 386.654Z" fill="#285052"/>
<path d="M140.352 472.68C136.442 471.283 134.053 467.528 134.184 463.591L117.655 461.619C117.493 462.513 117.281 463.395 116.973 464.27C114.064 472.343 105.169 476.537 97.095 473.627C94.2844 472.616 91.9541 470.864 90.2194 468.676L89.3136 467.41C86.7875 463.494 86.0367 458.485 87.741 453.753C90.5528 445.92 98.9858 441.771 106.855 444.176L111.882 430.195C109.468 428.92 108.279 426.047 109.237 423.396C110.268 420.511 113.466 418.998 116.36 420.038C119.258 421.072 120.75 424.283 119.713 427.171C118.762 429.817 116.03 431.274 113.348 430.729L108.325 444.698C114.56 447.31 118.285 453.571 117.837 460.086L134.386 462.051C134.469 461.623 134.587 461.188 134.735 460.767C136.477 455.929 141.804 453.404 146.653 455.15C151.495 456.895 153.999 462.237 152.267 467.074C150.533 471.919 145.194 474.425 140.352 472.68Z" fill="#285052"/>
</g>
<path opacity="0.1" d="M117.421 360.23C119.238 360.391 120.867 359.494 121.781 358.058L169.254 385.312C168.811 386.165 168.519 387.086 168.441 388.11C168.275 390.051 168.873 391.879 169.977 393.305L156.955 404.41C156.084 403.474 154.908 402.842 153.557 402.714C150.645 402.474 148.093 404.635 147.846 407.562C147.597 410.503 149.746 413.066 152.647 413.315C155.559 413.57 158.116 411.394 158.364 408.473C158.476 407.111 158.064 405.827 157.295 404.822L170.327 393.727C171.537 395.064 173.205 395.981 175.135 396.137C176.476 396.255 177.745 396.01 178.869 395.457L200.013 437.094C196.523 439.001 194.034 442.577 193.675 446.871C193.29 451.361 195.366 455.486 198.76 457.927L199.678 458.525C201.195 459.412 202.905 460.005 204.762 460.148C211.476 460.736 217.377 455.712 217.95 448.949C218.519 442.181 213.541 436.231 206.838 435.654C204.567 435.461 202.405 435.918 200.499 436.844L179.359 395.211C181.401 394.05 182.883 391.908 183.087 389.365C183.437 385.278 180.438 381.68 176.389 381.327C173.526 381.087 170.921 382.529 169.505 384.837L122.058 357.588C122.305 357.069 122.486 356.49 122.539 355.872C122.758 353.24 120.823 350.937 118.212 350.697C115.612 350.472 113.313 352.427 113.094 355.064C112.876 357.696 114.82 360.009 117.421 360.23Z" fill="#285052"/>
<path opacity="0.1" d="M54.5627 448.24C55.1817 448.015 55.7518 447.692 56.2787 447.33L98.1732 499.265C95.7555 501.367 93.909 503.985 92.7584 506.917L92.3678 507.948C91.0132 512.018 90.9643 516.587 92.5579 520.921C93.6304 523.848 95.3218 526.32 97.4178 528.338L98.2222 529.081C103.442 533.571 110.847 535.184 117.759 532.629C120.293 531.71 122.516 530.293 124.369 528.558L143.901 548.244C140.337 552.094 138.987 557.762 140.913 563.034C142.087 566.221 144.261 568.732 146.927 570.369L134.994 590.803C133.839 590.191 132.446 590.055 131.115 590.549C128.585 591.472 127.294 594.271 128.219 596.803C129.146 599.329 131.939 600.634 134.469 599.696C136.983 598.772 138.285 595.977 137.354 593.441C136.983 592.43 136.297 591.634 135.468 591.071L147.391 570.648C150.929 572.626 155.262 573.125 159.367 571.615C162.803 570.345 165.46 567.891 167.069 564.902L201.321 582.53C200.8 583.693 200.711 585.042 201.18 586.338C202.154 588.986 205.055 590.324 207.678 589.371C210.31 588.389 211.649 585.482 210.69 582.853C209.725 580.214 206.814 578.861 204.187 579.819C203.041 580.258 202.15 581.055 201.589 582.042L167.317 564.408C168.984 560.998 169.311 556.947 167.907 553.101C165.172 545.625 156.92 541.785 149.467 544.526C147.624 545.205 146.015 546.217 144.656 547.473L125.144 527.786C129.926 522.797 131.866 515.463 129.77 508.485L129.439 507.44C129.439 507.416 129.423 507.386 129.423 507.386C126.914 500.517 120.996 495.913 114.304 494.765L113.216 494.613C110.267 494.277 107.216 494.575 104.233 495.673C102.312 496.383 100.562 497.359 99.0068 498.566L57.1367 446.641C59.3003 444.614 60.1828 441.403 59.0858 438.414C57.6426 434.45 53.2466 432.418 49.2982 433.864C45.3452 435.32 43.3074 439.713 44.7751 443.695C46.2229 447.658 50.605 449.695 54.5627 448.24Z" fill="#285052"/>
<g opacity="0.3">
<path d="M162.709 31.4108C169.031 26.8103 170.415 17.9633 165.825 11.6353C161.22 5.32085 152.384 3.92583 146.05 8.51375C139.729 13.1141 138.336 21.9634 142.944 28.281C146.594 33.3102 152.941 35.212 158.562 33.484L172.147 72.7396C170.579 73.3384 169.052 74.1097 167.639 75.1526C163.152 78.4039 160.54 83.287 160.017 88.4071L101.233 83.8699C101.325 81.5741 100.67 79.2309 99.2131 77.2223C95.7275 72.4447 89.0478 71.388 84.2752 74.8704C79.5073 78.3329 78.4442 85.0291 81.9216 89.7974C85.3967 94.5742 92.0857 95.6286 96.8606 92.1551C99.3553 90.3383 100.825 87.635 101.17 84.7985L159.924 89.3395C159.707 93.5074 160.848 97.7868 163.497 101.422C163.814 101.863 164.151 102.265 164.503 102.67L157.073 109.459C154.685 107.152 150.907 106.821 148.124 108.848C144.999 111.117 144.31 115.491 146.589 118.611C148.861 121.744 153.241 122.434 156.358 120.155C159.486 117.889 160.165 113.512 157.887 110.386C157.841 110.3 157.77 110.225 157.706 110.144L165.13 103.356C167.758 106.097 171.063 107.899 174.576 108.688L151.414 226.986C147.748 226.432 143.862 227.263 140.62 229.617C139.853 230.182 139.139 230.807 138.509 231.494L118.09 213.775C121.127 209.96 121.394 204.445 118.377 200.303C116.664 197.943 114.203 196.471 111.568 195.946L115.924 171.5C117.35 171.701 118.863 171.368 120.123 170.457C122.705 168.571 123.285 164.952 121.401 162.358C119.517 159.769 115.887 159.199 113.312 161.074C110.719 162.969 110.147 166.588 112.022 169.173C112.902 170.371 114.133 171.123 115.479 171.422L111.108 195.857C108.307 195.418 105.318 196.035 102.832 197.85C101.421 198.869 100.331 200.177 99.5722 201.622L59.6092 181.389C60.2014 180.03 60.1012 178.407 59.1627 177.124C57.765 175.195 55.0616 174.768 53.137 176.167C51.2077 177.565 50.7857 180.267 52.1893 182.207C53.5905 184.127 56.2833 184.547 58.2126 183.149C58.7163 182.784 59.1243 182.316 59.4099 181.807L99.353 202.024C97.6393 205.594 97.897 209.962 100.382 213.384C104.012 218.359 110.961 219.456 115.942 215.853C116.499 215.431 117.008 214.978 117.483 214.481L137.911 232.197C136.189 234.294 135.117 236.795 134.747 239.413L134.647 240.33C134.388 243.687 135.263 247.141 137.405 250.079C138.062 250.995 138.816 251.782 139.626 252.495L132.664 261.155C130.967 260.041 128.708 260.006 126.971 261.275C124.739 262.885 124.249 266.012 125.864 268.255C127.501 270.489 130.612 270.983 132.86 269.365C135.094 267.732 135.581 264.613 133.954 262.37C133.795 262.13 133.597 261.941 133.383 261.733L140.348 253.088C143.552 255.544 147.634 256.546 151.571 255.932L159.539 296.656C158.392 296.939 157.289 297.446 156.278 298.181C152.087 301.214 151.163 307.068 154.215 311.257C157.263 315.447 163.118 316.371 167.3 313.329C171.493 310.289 172.409 304.424 169.369 300.244C167.245 297.326 163.776 295.996 160.444 296.484L152.473 255.769C154.372 255.337 156.201 254.522 157.883 253.312C162.167 250.186 164.244 245.177 163.834 240.248L187.637 237.686C187.865 239.096 188.404 240.468 189.296 241.699C192.315 245.844 198.122 246.762 202.276 243.739C206.428 240.737 207.342 234.924 204.318 230.767C201.296 226.619 195.487 225.704 191.34 228.721C188.692 230.648 187.363 233.72 187.537 236.764L163.736 239.334C163.401 237.057 162.525 234.831 161.092 232.844C158.881 229.813 155.732 227.871 152.324 227.147L175.488 108.876C180.33 109.722 185.481 108.68 189.767 105.564C190.922 104.734 191.935 103.779 192.838 102.753L233.577 136.884C231.073 140.177 230.889 144.856 233.457 148.398C234.839 150.296 236.779 151.544 238.893 152.078L234.593 170.868C232.925 170.543 231.123 170.892 229.639 171.959C226.79 174.055 226.164 178.047 228.23 180.91C230.314 183.762 234.308 184.398 237.165 182.317C240.019 180.245 240.658 176.236 238.57 173.381C237.677 172.156 236.413 171.34 235.055 170.971L239.346 152.16C241.907 152.682 244.669 152.181 246.942 150.529C250.773 147.732 251.941 142.658 249.963 138.541L258.388 134.237C258.477 134.378 258.548 134.535 258.644 134.664C260.182 136.772 263.126 137.231 265.208 135.713C267.304 134.187 267.771 131.245 266.249 129.149C264.723 127.049 261.786 126.572 259.685 128.108C257.849 129.43 257.274 131.843 258.159 133.834L249.734 138.126C249.538 137.761 249.318 137.394 249.065 137.046C245.925 132.722 239.886 131.776 235.581 134.909C235.056 135.287 234.589 135.713 234.161 136.171L193.424 102.043C197.189 97.2976 198.412 91.0251 196.786 85.26L196.537 84.3675C195.937 82.5928 195.06 80.8801 193.903 79.2938C189.008 72.5695 180.512 70.0551 173.015 72.43L159.431 33.1628C160.571 32.7382 161.671 32.1673 162.709 31.4108Z" fill="#285052"/>
<path d="M204.986 245.617C210.211 241.093 210.776 233.167 206.248 227.944C201.725 222.726 193.798 222.16 188.573 226.684C183.348 231.207 182.777 239.132 187.3 244.349C191.828 249.573 199.761 250.141 204.986 245.617ZM189.133 227.329C193.999 223.116 201.393 223.647 205.601 228.503C209.819 233.369 209.29 240.755 204.424 244.968C199.555 249.184 192.164 248.649 187.95 243.788C183.737 238.929 184.264 231.545 189.133 227.329Z" fill="#285052"/>
<path d="M249.56 152.29C254.838 147.721 255.415 139.715 250.844 134.441C246.274 129.17 238.26 128.598 232.982 133.167C227.711 137.732 227.133 145.744 231.702 151.015C236.273 156.288 244.285 156.857 249.56 152.29ZM233.442 133.697C238.426 129.382 245.989 129.925 250.307 134.906C254.621 139.883 254.073 147.438 249.092 151.751C244.114 156.062 236.545 155.529 232.233 150.556C227.915 145.575 228.464 138.008 233.442 133.697Z" fill="#285052"/>
<path d="M99.3984 93.6204C104.988 88.7805 105.603 80.294 100.758 74.7055C95.9164 69.12 87.4204 68.5158 81.8307 73.3558C76.2374 78.1984 75.6289 86.6854 80.4714 92.2708C85.3162 97.8593 93.8052 98.463 99.3984 93.6204ZM82.3879 73.9982C87.6244 69.4636 95.5748 70.0376 100.108 75.2675C104.645 80.5005 104.075 88.4403 98.8389 92.9748C93.6047 97.5068 85.6601 96.939 81.123 91.706C76.5895 86.4761 77.1537 78.5301 82.3879 73.9982Z" fill="#285052"/>
<path d="M122.202 172.086C125.669 169.083 126.047 163.815 123.043 160.35C120.043 156.889 114.777 156.513 111.307 159.517C107.845 162.515 107.465 167.774 110.468 171.239C113.473 174.704 118.737 175.086 122.202 172.086ZM111.663 159.93C114.91 157.118 119.834 157.468 122.64 160.706C125.452 163.948 125.099 168.873 121.853 171.684C118.613 174.488 113.689 174.134 110.878 170.89C108.07 167.653 108.424 162.734 111.663 159.93Z" fill="#285052"/>
</g>
<path opacity="0.3" d="M74.483 422.082C77.4568 422.344 80.1205 420.89 81.615 418.562L159.258 462.74C158.534 464.123 158.058 465.616 157.931 467.276C157.66 470.422 158.638 473.386 160.443 475.697L139.143 493.699C137.72 492.182 135.797 491.156 133.586 490.95C128.824 490.561 124.65 494.064 124.245 498.807C123.84 503.574 127.353 507.728 132.1 508.134C136.862 508.546 141.044 505.019 141.449 500.285C141.632 498.076 140.956 495.995 139.701 494.366L161.015 476.38C162.995 478.549 165.721 480.035 168.878 480.289C171.072 480.48 173.147 480.083 174.984 479.184L209.568 546.678C203.86 549.769 199.789 555.567 199.2 562.527C198.573 569.804 201.968 576.493 207.517 580.449L209.019 581.419C211.5 582.856 214.299 583.817 217.336 584.048C228.315 585.001 237.967 576.859 238.906 565.895C239.836 554.924 231.694 545.28 220.73 544.343C217.018 544.033 213.48 544.772 210.363 546.274L175.787 478.787C179.126 476.904 181.551 473.433 181.885 469.311C182.458 462.685 177.552 456.854 170.93 456.282C166.247 455.893 161.985 458.228 159.671 461.97L82.0673 417.8C82.473 416.958 82.768 416.02 82.8554 415.019C83.2133 410.754 80.0483 407.02 75.7793 406.631C71.5255 406.265 67.7648 409.435 67.4069 413.709C67.049 417.975 70.2292 421.724 74.483 422.082Z" fill="#285052"/>
<path opacity="0.3" d="M169.878 451.372C160.56 451.372 152.983 458.943 152.983 468.246C152.983 477.572 160.56 485.136 169.878 485.136C179.188 485.136 186.772 477.572 186.772 468.246C186.772 458.943 179.188 451.372 169.878 451.372ZM169.878 484.11C161.125 484.11 154.017 477 154.017 468.246C154.017 459.515 161.125 452.406 169.878 452.406C178.632 452.406 185.739 459.523 185.739 468.246C185.739 476.993 178.632 484.11 169.878 484.11Z" fill="#285052"/>
</g>
<defs>
<clipPath id="clip0_2_23">
<rect width="422" height="600" fill="white" transform="matrix(-1 0 0 1 422 0)"/>
</clipPath>
</defs>
</svg>
